<?xml version="1.0" encoding="UTF-8" standalone="no"?>
<!DOCTYPE svg PUBLIC "-//W3C//DTD SVG 1.1//EN"
 "http://www.w3.org/Graphics/SVG/1.1/DTD/svg11.dtd">
<!-- Generated by graphviz version 2.40.1 (20161225.0304)
 -->
<!-- Title: G Pages: 1 -->
<svg width="6872pt" height="939pt"
 viewBox="0.00 0.00 6871.65 939.21" xmlns="http://www.w3.org/2000/svg" xmlns:xlink="http://www.w3.org/1999/xlink">
<g id="graph0" class="graph" transform="scale(1 1) rotate(0) translate(21.6 917.6085)">
<title>G</title>
<polygon fill="#111111" stroke="transparent" points="-21.6,21.6 -21.6,-917.6085 6850.0473,-917.6085 6850.0473,21.6 -21.6,21.6"/>
<!-- config/report/report.config.json -->
<g id="node1" class="node">
<title>config/report/report.config.json</title>
<path fill="none" stroke="#cfffac" d="M421.8458,-744.0581C421.8458,-744.0581 232.7724,-744.0581 232.7724,-744.0581 228.7395,-744.0581 224.7065,-740.0251 224.7065,-735.9922 224.7065,-735.9922 224.7065,-727.9263 224.7065,-727.9263 224.7065,-723.8933 228.7395,-719.8604 232.7724,-719.8604 232.7724,-719.8604 421.8458,-719.8604 421.8458,-719.8604 425.8787,-719.8604 429.9116,-723.8933 429.9116,-727.9263 429.9116,-727.9263 429.9116,-735.9922 429.9116,-735.9922 429.9116,-740.0251 425.8787,-744.0581 421.8458,-744.0581"/>
<text text-anchor="middle" x="327.3091" y="-728.8085" font-family="Arial" font-size="14.00" fill="#cfffac">config/report/report.config.json</text>
</g>
<!-- core/base/base.model.js -->
<g id="node2" class="node">
<title>core/base/base.model.js</title>
<path fill="none" stroke="#cfffac" d="M170.0642,-744.0581C170.0642,-744.0581 18.6936,-744.0581 18.6936,-744.0581 14.6607,-744.0581 10.6277,-740.0251 10.6277,-735.9922 10.6277,-735.9922 10.6277,-727.9263 10.6277,-727.9263 10.6277,-723.8933 14.6607,-719.8604 18.6936,-719.8604 18.6936,-719.8604 170.0642,-719.8604 170.0642,-719.8604 174.0971,-719.8604 178.1301,-723.8933 178.1301,-727.9263 178.1301,-727.9263 178.1301,-735.9922 178.1301,-735.9922 178.1301,-740.0251 174.0971,-744.0581 170.0642,-744.0581"/>
<text text-anchor="middle" x="94.3789" y="-728.8085" font-family="Arial" font-size="14.00" fill="#cfffac">core/base/base.model.js</text>
</g>
<!-- core/base/base.service.js -->
<g id="node3" class="node">
<title>core/base/base.service.js</title>
<path fill="none" stroke="#c6c5fe" d="M1070.6992,-702.0581C1070.6992,-702.0581 912.9013,-702.0581 912.9013,-702.0581 908.8684,-702.0581 904.8354,-698.0251 904.8354,-693.9922 904.8354,-693.9922 904.8354,-685.9263 904.8354,-685.9263 904.8354,-681.8933 908.8684,-677.8604 912.9013,-677.8604 912.9013,-677.8604 1070.6992,-677.8604 1070.6992,-677.8604 1074.7322,-677.8604 1078.7651,-681.8933 1078.7651,-685.9263 1078.7651,-685.9263 1078.7651,-693.9922 1078.7651,-693.9922 1078.7651,-698.0251 1074.7322,-702.0581 1070.6992,-702.0581"/>
<text text-anchor="middle" x="991.8003" y="-686.8085" font-family="Arial" font-size="14.00" fill="#c6c5fe">core/base/base.service.js</text>
</g>
<!-- core/engine/index.js -->
<g id="node4" class="node">
<title>core/engine/index.js</title>
<path fill="none" stroke="#c6c5fe" d="M1248.1751,-665.0581C1248.1751,-665.0581 1124.2584,-665.0581 1124.2584,-665.0581 1120.2255,-665.0581 1116.1926,-661.0251 1116.1926,-656.9922 1116.1926,-656.9922 1116.1926,-648.9263 1116.1926,-648.9263 1116.1926,-644.8933 1120.2255,-640.8604 1124.2584,-640.8604 1124.2584,-640.8604 1248.1751,-640.8604 1248.1751,-640.8604 1252.2081,-640.8604 1256.241,-644.8933 1256.241,-648.9263 1256.241,-648.9263 1256.241,-656.9922 1256.241,-656.9922 1256.241,-661.0251 1252.2081,-665.0581 1248.1751,-665.0581"/>
<text text-anchor="middle" x="1186.2168" y="-649.8085" font-family="Arial" font-size="14.00" fill="#c6c5fe">core/engine/index.js</text>
</g>
<!-- core/base/base.service.js&#45;&gt;core/engine/index.js -->
<g id="edge1" class="edge">
<title>core/base/base.service.js&#45;&gt;core/engine/index.js</title>
<path fill="none" stroke="#757575" d="M1055.1905,-677.8952C1073.5066,-674.4095 1093.6525,-670.5754 1112.5378,-666.9813"/>
<polygon fill="#757575" stroke="#757575" points="1113.4109,-670.3781 1122.5802,-665.0701 1112.1021,-663.5015 1113.4109,-670.3781"/>
</g>
<!-- core/helper/runner.helper.js -->
<g id="node5" class="node">
<title>core/helper/runner.helper.js</title>
<path fill="none" stroke="#c6c5fe" d="M2509.1956,-781.0581C2509.1956,-781.0581 2340.0045,-781.0581 2340.0045,-781.0581 2335.9716,-781.0581 2331.9387,-777.0251 2331.9387,-772.9922 2331.9387,-772.9922 2331.9387,-764.9263 2331.9387,-764.9263 2331.9387,-760.8933 2335.9716,-756.8604 2340.0045,-756.8604 2340.0045,-756.8604 2509.1956,-756.8604 2509.1956,-756.8604 2513.2286,-756.8604 2517.2615,-760.8933 2517.2615,-764.9263 2517.2615,-764.9263 2517.2615,-772.9922 2517.2615,-772.9922 2517.2615,-777.0251 2513.2286,-781.0581 2509.1956,-781.0581"/>
<text text-anchor="middle" x="2424.6001" y="-765.8085" font-family="Arial" font-size="14.00" fill="#c6c5fe">core/helper/runner.helper.js</text>
</g>
<!-- core/base/base.service.js&#45;&gt;core/helper/runner.helper.js -->
<g id="edge2" class="edge">
<title>core/base/base.service.js&#45;&gt;core/helper/runner.helper.js</title>
<path fill="none" stroke="#757575" d="M1027.9994,-702.0436C1097.6148,-724.1739 1255.351,-768.9592 1391.7861,-768.9592 1391.7861,-768.9592 1391.7861,-768.9592 1878.5474,-768.9592 2032.9912,-768.9592 2212.0065,-768.9592 2321.7723,-768.9592"/>
<polygon fill="#757575" stroke="#757575" points="2321.8472,-772.4593 2331.8471,-768.9592 2321.8471,-765.4593 2321.8472,-772.4593"/>
</g>
<!-- core/engine/request.factory.js -->
<g id="node13" class="node">
<title>core/engine/request.factory.js</title>
<path fill="none" stroke="#c6c5fe" d="M1482.8358,-590.0581C1482.8358,-590.0581 1300.7364,-590.0581 1300.7364,-590.0581 1296.7035,-590.0581 1292.6705,-586.0251 1292.6705,-581.9922 1292.6705,-581.9922 1292.6705,-573.9263 1292.6705,-573.9263 1292.6705,-569.8933 1296.7035,-565.8604 1300.7364,-565.8604 1300.7364,-565.8604 1482.8358,-565.8604 1482.8358,-565.8604 1486.8688,-565.8604 1490.9017,-569.8933 1490.9017,-573.9263 1490.9017,-573.9263 1490.9017,-581.9922 1490.9017,-581.9922 1490.9017,-586.0251 1486.8688,-590.0581 1482.8358,-590.0581"/>
<text text-anchor="middle" x="1391.7861" y="-574.8085" font-family="Arial" font-size="14.00" fill="#c6c5fe">core/engine/request.factory.js</text>
</g>
<!-- core/engine/index.js&#45;&gt;core/engine/request.factory.js -->
<g id="edge10" class="edge">
<title>core/engine/index.js&#45;&gt;core/engine/request.factory.js</title>
<path fill="none" stroke="#757575" d="M1219.2451,-640.9092C1254.5049,-628.045 1310.5015,-607.6152 1349.0874,-593.5375"/>
<polygon fill="#757575" stroke="#757575" points="1350.3043,-596.8192 1358.499,-590.1037 1347.9051,-590.2432 1350.3043,-596.8192"/>
</g>
<!-- core/config/service/index.js -->
<g id="node9" class="node">
<title>core/config/service/index.js</title>
<path fill="none" stroke="#c6c5fe" d="M2747.7706,-781.0581C2747.7706,-781.0581 2579.7519,-781.0581 2579.7519,-781.0581 2575.719,-781.0581 2571.686,-777.0251 2571.686,-772.9922 2571.686,-772.9922 2571.686,-764.9263 2571.686,-764.9263 2571.686,-760.8933 2575.719,-756.8604 2579.7519,-756.8604 2579.7519,-756.8604 2747.7706,-756.8604 2747.7706,-756.8604 2751.8035,-756.8604 2755.8364,-760.8933 2755.8364,-764.9263 2755.8364,-764.9263 2755.8364,-772.9922 2755.8364,-772.9922 2755.8364,-777.0251 2751.8035,-781.0581 2747.7706,-781.0581"/>
<text text-anchor="middle" x="2663.7612" y="-765.8085" font-family="Arial" font-size="14.00" fill="#c6c5fe">core/config/service/index.js</text>
</g>
<!-- core/helper/runner.helper.js&#45;&gt;core/config/service/index.js -->
<g id="edge31" class="edge">
<title>core/helper/runner.helper.js&#45;&gt;core/config/service/index.js</title>
<path fill="none" stroke="#757575" d="M2517.4083,-768.9592C2531.8105,-768.9592 2546.7588,-768.9592 2561.3583,-768.9592"/>
<polygon fill="#757575" stroke="#757575" points="2561.3989,-772.4593 2571.3989,-768.9592 2561.3988,-765.4593 2561.3989,-772.4593"/>
</g>
<!-- core/config/log4js/index.js -->
<g id="node6" class="node">
<title>core/config/log4js/index.js</title>
<path fill="none" stroke="#c6c5fe" d="M1072.0442,-817.0581C1072.0442,-817.0581 911.5563,-817.0581 911.5563,-817.0581 907.5234,-817.0581 903.4905,-813.0251 903.4905,-808.9922 903.4905,-808.9922 903.4905,-800.9263 903.4905,-800.9263 903.4905,-796.8933 907.5234,-792.8604 911.5563,-792.8604 911.5563,-792.8604 1072.0442,-792.8604 1072.0442,-792.8604 1076.0772,-792.8604 1080.1101,-796.8933 1080.1101,-800.9263 1080.1101,-800.9263 1080.1101,-808.9922 1080.1101,-808.9922 1080.1101,-813.0251 1076.0772,-817.0581 1072.0442,-817.0581"/>
<text text-anchor="middle" x="991.8003" y="-801.8085" font-family="Arial" font-size="14.00" fill="#c6c5fe">core/config/log4js/index.js</text>
</g>
<!-- core/config/log4js/index.js&#45;&gt;core/helper/runner.helper.js -->
<g id="edge3" class="edge">
<title>core/config/log4js/index.js&#45;&gt;core/helper/runner.helper.js</title>
<path fill="none" stroke="#757575" d="M1079.9758,-805.6531C1161.0219,-806.2308 1284.4969,-806.9592 1391.7861,-806.9592 1391.7861,-806.9592 1391.7861,-806.9592 1878.5474,-806.9592 2033.1344,-806.9592 2211.7457,-791.6156 2321.4305,-780.4282"/>
<polygon fill="#757575" stroke="#757575" points="2321.9091,-783.8975 2331.4987,-779.3932 2321.1932,-776.9342 2321.9091,-783.8975"/>
</g>
<!-- core/config/service/base.config.js -->
<g id="node7" class="node">
<title>core/config/service/base.config.js</title>
<path fill="none" stroke="#c6c5fe" d="M3278.2516,-746.0581C3278.2516,-746.0581 3071.9574,-746.0581 3071.9574,-746.0581 3067.9244,-746.0581 3063.8915,-742.0251 3063.8915,-737.9922 3063.8915,-737.9922 3063.8915,-729.9263 3063.8915,-729.9263 3063.8915,-725.8933 3067.9244,-721.8604 3071.9574,-721.8604 3071.9574,-721.8604 3278.2516,-721.8604 3278.2516,-721.8604 3282.2845,-721.8604 3286.3175,-725.8933 3286.3175,-729.9263 3286.3175,-729.9263 3286.3175,-737.9922 3286.3175,-737.9922 3286.3175,-742.0251 3282.2845,-746.0581 3278.2516,-746.0581"/>
<text text-anchor="middle" x="3175.1045" y="-730.8085" font-family="Arial" font-size="14.00" fill="#c6c5fe">core/config/service/base.config.js</text>
</g>
<!-- core/helper/config.helper.js -->
<g id="node8" class="node">
<title>core/helper/config.helper.js</title>
<path fill="none" stroke="#cfffac" d="M3513.5682,-746.0581C3513.5682,-746.0581 3346.0529,-746.0581 3346.0529,-746.0581 3342.02,-746.0581 3337.987,-742.0251 3337.987,-737.9922 3337.987,-737.9922 3337.987,-729.9263 3337.987,-729.9263 3337.987,-725.8933 3342.02,-721.8604 3346.0529,-721.8604 3346.0529,-721.8604 3513.5682,-721.8604 3513.5682,-721.8604 3517.6011,-721.8604 3521.6341,-725.8933 3521.6341,-729.9263 3521.6341,-729.9263 3521.6341,-737.9922 3521.6341,-737.9922 3521.6341,-742.0251 3517.6011,-746.0581 3513.5682,-746.0581"/>
<text text-anchor="middle" x="3429.8105" y="-730.8085" font-family="Arial" font-size="14.00" fill="#cfffac">core/helper/config.helper.js</text>
</g>
<!-- core/config/service/base.config.js&#45;&gt;core/helper/config.helper.js -->
<g id="edge4" class="edge">
<title>core/config/service/base.config.js&#45;&gt;core/helper/config.helper.js</title>
<path fill="none" stroke="#757575" d="M3286.4517,-733.9592C3300.1057,-733.9592 3314.009,-733.9592 3327.5205,-733.9592"/>
<polygon fill="#757575" stroke="#757575" points="3327.7658,-737.4593 3337.7658,-733.9592 3327.7658,-730.4593 3327.7658,-737.4593"/>
</g>
<!-- core/config/service/service.config.js -->
<g id="node10" class="node">
<title>core/config/service/service.config.js</title>
<path fill="none" stroke="#c6c5fe" d="M3020.0319,-745.0581C3020.0319,-745.0581 2799.765,-745.0581 2799.765,-745.0581 2795.7321,-745.0581 2791.6991,-741.0251 2791.6991,-736.9922 2791.6991,-736.9922 2791.6991,-728.9263 2791.6991,-728.9263 2791.6991,-724.8933 2795.7321,-720.8604 2799.765,-720.8604 2799.765,-720.8604 3020.0319,-720.8604 3020.0319,-720.8604 3024.0648,-720.8604 3028.0977,-724.8933 3028.0977,-728.9263 3028.0977,-728.9263 3028.0977,-736.9922 3028.0977,-736.9922 3028.0977,-741.0251 3024.0648,-745.0581 3020.0319,-745.0581"/>
<text text-anchor="middle" x="2909.8984" y="-729.8085" font-family="Arial" font-size="14.00" fill="#c6c5fe">core/config/service/service.config.js</text>
</g>
<!-- core/config/service/index.js&#45;&gt;core/config/service/service.config.js -->
<g id="edge5" class="edge">
<title>core/config/service/index.js&#45;&gt;core/config/service/service.config.js</title>
<path fill="none" stroke="#757575" d="M2746.4061,-756.8716C2769.2578,-753.5293 2794.2013,-749.8811 2817.5658,-746.4638"/>
<polygon fill="#757575" stroke="#757575" points="2818.0835,-749.9254 2827.4717,-745.015 2817.0704,-742.9991 2818.0835,-749.9254"/>
</g>
<!-- core/config/service/sftp.config.js -->
<g id="node11" class="node">
<title>core/config/service/sftp.config.js</title>
<path fill="none" stroke="#c6c5fe" d="M3009.2529,-787.0581C3009.2529,-787.0581 2810.544,-787.0581 2810.544,-787.0581 2806.511,-787.0581 2802.4781,-783.0251 2802.4781,-778.9922 2802.4781,-778.9922 2802.4781,-770.9263 2802.4781,-770.9263 2802.4781,-766.8933 2806.511,-762.8604 2810.544,-762.8604 2810.544,-762.8604 3009.2529,-762.8604 3009.2529,-762.8604 3013.2858,-762.8604 3017.3188,-766.8933 3017.3188,-770.9263 3017.3188,-770.9263 3017.3188,-778.9922 3017.3188,-778.9922 3017.3188,-783.0251 3013.2858,-787.0581 3009.2529,-787.0581"/>
<text text-anchor="middle" x="2909.8984" y="-771.8085" font-family="Arial" font-size="14.00" fill="#c6c5fe">core/config/service/sftp.config.js</text>
</g>
<!-- core/config/service/index.js&#45;&gt;core/config/service/sftp.config.js -->
<g id="edge6" class="edge">
<title>core/config/service/index.js&#45;&gt;core/config/service/sftp.config.js</title>
<path fill="none" stroke="#757575" d="M2756.1139,-771.2105C2767.9433,-771.4988 2780.1772,-771.7971 2792.3392,-772.0935"/>
<polygon fill="#757575" stroke="#757575" points="2792.4455,-775.5971 2802.5279,-772.3419 2792.6162,-768.5991 2792.4455,-775.5971"/>
</g>
<!-- core/config/service/service.config.js&#45;&gt;core/config/service/base.config.js -->
<g id="edge7" class="edge">
<title>core/config/service/service.config.js&#45;&gt;core/config/service/base.config.js</title>
<path fill="none" stroke="#757575" d="M3028.1525,-733.4051C3036.6906,-733.4373 3045.3089,-733.4698 3053.8637,-733.5021"/>
<polygon fill="#757575" stroke="#757575" points="3053.8553,-737.002 3063.8685,-733.5398 3053.8818,-730.002 3053.8553,-737.002"/>
</g>
<!-- core/config/service/sftp.config.js&#45;&gt;core/config/service/base.config.js -->
<g id="edge8" class="edge">
<title>core/config/service/sftp.config.js&#45;&gt;core/config/service/base.config.js</title>
<path fill="none" stroke="#757575" d="M2988.0346,-762.8796C3019.0554,-758.0839 3054.8897,-752.544 3086.8422,-747.6043"/>
<polygon fill="#757575" stroke="#757575" points="3087.7211,-751.0101 3097.0689,-746.0233 3086.6516,-744.0923 3087.7211,-751.0101"/>
</g>
<!-- core/config/service/sftp.config.js&#45;&gt;core/helper/config.helper.js -->
<g id="edge9" class="edge">
<title>core/config/service/sftp.config.js&#45;&gt;core/helper/config.helper.js</title>
<path fill="none" stroke="#757575" d="M3017.154,-771.8862C3092.5521,-769.0842 3195.7179,-763.9615 3286.2109,-754.9592 3305.6397,-753.0265 3326.4641,-750.3396 3346.059,-747.5322"/>
<polygon fill="#757575" stroke="#757575" points="3346.7895,-750.9628 3356.1799,-746.0565 3345.7795,-744.036 3346.7895,-750.9628"/>
</g>
<!-- core/constant/statusCode.js -->
<g id="node12" class="node">
<title>core/constant/statusCode.js</title>
<path fill="none" stroke="#cfffac" d="M180.571,-786.0581C180.571,-786.0581 8.1868,-786.0581 8.1868,-786.0581 4.1539,-786.0581 .1209,-782.0251 .1209,-777.9922 .1209,-777.9922 .1209,-769.9263 .1209,-769.9263 .1209,-765.8933 4.1539,-761.8604 8.1868,-761.8604 8.1868,-761.8604 180.571,-761.8604 180.571,-761.8604 184.6039,-761.8604 188.6369,-765.8933 188.6369,-769.9263 188.6369,-769.9263 188.6369,-777.9922 188.6369,-777.9922 188.6369,-782.0251 184.6039,-786.0581 180.571,-786.0581"/>
<text text-anchor="middle" x="94.3789" y="-770.8085" font-family="Arial" font-size="14.00" fill="#cfffac">core/constant/statusCode.js</text>
</g>
<!-- core/engine/request/index.js -->
<g id="node14" class="node">
<title>core/engine/request/index.js</title>
<path fill="none" stroke="#c6c5fe" d="M1710.192,-590.0581C1710.192,-590.0581 1535.1049,-590.0581 1535.1049,-590.0581 1531.072,-590.0581 1527.039,-586.0251 1527.039,-581.9922 1527.039,-581.9922 1527.039,-573.9263 1527.039,-573.9263 1527.039,-569.8933 1531.072,-565.8604 1535.1049,-565.8604 1535.1049,-565.8604 1710.192,-565.8604 1710.192,-565.8604 1714.2249,-565.8604 1718.2578,-569.8933 1718.2578,-573.9263 1718.2578,-573.9263 1718.2578,-581.9922 1718.2578,-581.9922 1718.2578,-586.0251 1714.2249,-590.0581 1710.192,-590.0581"/>
<text text-anchor="middle" x="1622.6484" y="-574.8085" font-family="Arial" font-size="14.00" fill="#c6c5fe">core/engine/request/index.js</text>
</g>
<!-- core/engine/request.factory.js&#45;&gt;core/engine/request/index.js -->
<g id="edge11" class="edge">
<title>core/engine/request.factory.js&#45;&gt;core/engine/request/index.js</title>
<path fill="none" stroke="#757575" d="M1491.0323,-577.9592C1499.5527,-577.9592 1508.193,-577.9592 1516.7627,-577.9592"/>
<polygon fill="#757575" stroke="#757575" points="1516.779,-581.4593 1526.779,-577.9592 1516.7789,-574.4593 1516.779,-581.4593"/>
</g>
<!-- core/engine/request/rest.request.js -->
<g id="node18" class="node">
<title>core/engine/request/rest.request.js</title>
<path fill="none" stroke="#c6c5fe" d="M1986.0463,-548.0581C1986.0463,-548.0581 1771.0484,-548.0581 1771.0484,-548.0581 1767.0154,-548.0581 1762.9825,-544.0251 1762.9825,-539.9922 1762.9825,-539.9922 1762.9825,-531.9263 1762.9825,-531.9263 1762.9825,-527.8933 1767.0154,-523.8604 1771.0484,-523.8604 1771.0484,-523.8604 1986.0463,-523.8604 1986.0463,-523.8604 1990.0793,-523.8604 1994.1122,-527.8933 1994.1122,-531.9263 1994.1122,-531.9263 1994.1122,-539.9922 1994.1122,-539.9922 1994.1122,-544.0251 1990.0793,-548.0581 1986.0463,-548.0581"/>
<text text-anchor="middle" x="1878.5474" y="-532.8085" font-family="Arial" font-size="14.00" fill="#c6c5fe">core/engine/request/rest.request.js</text>
</g>
<!-- core/engine/request/index.js&#45;&gt;core/engine/request/rest.request.js -->
<g id="edge15" class="edge">
<title>core/engine/request/index.js&#45;&gt;core/engine/request/rest.request.js</title>
<path fill="none" stroke="#757575" d="M1696.3217,-565.8674C1727.0984,-560.8161 1763.0181,-554.9207 1794.7923,-549.7057"/>
<polygon fill="#757575" stroke="#757575" points="1795.6501,-553.1119 1804.9512,-548.0384 1794.5163,-546.2043 1795.6501,-553.1119"/>
</g>
<!-- core/engine/request/sftp.request.js -->
<g id="node19" class="node">
<title>core/engine/request/sftp.request.js</title>
<path fill="none" stroke="#c6c5fe" d="M1985.7736,-632.0581C1985.7736,-632.0581 1771.3212,-632.0581 1771.3212,-632.0581 1767.2882,-632.0581 1763.2553,-628.0251 1763.2553,-623.9922 1763.2553,-623.9922 1763.2553,-615.9263 1763.2553,-615.9263 1763.2553,-611.8933 1767.2882,-607.8604 1771.3212,-607.8604 1771.3212,-607.8604 1985.7736,-607.8604 1985.7736,-607.8604 1989.8065,-607.8604 1993.8394,-611.8933 1993.8394,-615.9263 1993.8394,-615.9263 1993.8394,-623.9922 1993.8394,-623.9922 1993.8394,-628.0251 1989.8065,-632.0581 1985.7736,-632.0581"/>
<text text-anchor="middle" x="1878.5474" y="-616.8085" font-family="Arial" font-size="14.00" fill="#c6c5fe">core/engine/request/sftp.request.js</text>
</g>
<!-- core/engine/request/index.js&#45;&gt;core/engine/request/sftp.request.js -->
<g id="edge16" class="edge">
<title>core/engine/request/index.js&#45;&gt;core/engine/request/sftp.request.js</title>
<path fill="none" stroke="#757575" d="M1696.3217,-590.051C1727.0984,-595.1023 1763.0181,-600.9977 1794.7923,-606.2127"/>
<polygon fill="#757575" stroke="#757575" points="1794.5163,-609.7142 1804.9512,-607.8801 1795.6501,-602.8066 1794.5163,-609.7142"/>
</g>
<!-- core/engine/request/socket.request.js -->
<g id="node20" class="node">
<title>core/engine/request/socket.request.js</title>
<path fill="none" stroke="#c6c5fe" d="M1994.6701,-590.0581C1994.6701,-590.0581 1762.4246,-590.0581 1762.4246,-590.0581 1758.3916,-590.0581 1754.3587,-586.0251 1754.3587,-581.9922 1754.3587,-581.9922 1754.3587,-573.9263 1754.3587,-573.9263 1754.3587,-569.8933 1758.3916,-565.8604 1762.4246,-565.8604 1762.4246,-565.8604 1994.6701,-565.8604 1994.6701,-565.8604 1998.7031,-565.8604 2002.736,-569.8933 2002.736,-573.9263 2002.736,-573.9263 2002.736,-581.9922 2002.736,-581.9922 2002.736,-586.0251 1998.7031,-590.0581 1994.6701,-590.0581"/>
<text text-anchor="middle" x="1878.5474" y="-574.8085" font-family="Arial" font-size="14.00" fill="#c6c5fe">core/engine/request/socket.request.js</text>
</g>
<!-- core/engine/request/index.js&#45;&gt;core/engine/request/socket.request.js -->
<g id="edge17" class="edge">
<title>core/engine/request/index.js&#45;&gt;core/engine/request/socket.request.js</title>
<path fill="none" stroke="#757575" d="M1718.2997,-577.9592C1726.6665,-577.9592 1735.2306,-577.9592 1743.8355,-577.9592"/>
<polygon fill="#757575" stroke="#757575" points="1743.9464,-581.4593 1753.9463,-577.9592 1743.9463,-574.4593 1743.9464,-581.4593"/>
</g>
<!-- core/engine/request/base.request.js -->
<g id="node15" class="node">
<title>core/engine/request/base.request.js</title>
<path fill="none" stroke="#c6c5fe" d="M2269.2035,-589.0581C2269.2035,-589.0581 2047.1647,-589.0581 2047.1647,-589.0581 2043.1317,-589.0581 2039.0988,-585.0251 2039.0988,-580.9922 2039.0988,-580.9922 2039.0988,-572.9263 2039.0988,-572.9263 2039.0988,-568.8933 2043.1317,-564.8604 2047.1647,-564.8604 2047.1647,-564.8604 2269.2035,-564.8604 2269.2035,-564.8604 2273.2365,-564.8604 2277.2694,-568.8933 2277.2694,-572.9263 2277.2694,-572.9263 2277.2694,-580.9922 2277.2694,-580.9922 2277.2694,-585.0251 2273.2365,-589.0581 2269.2035,-589.0581"/>
<text text-anchor="middle" x="2158.1841" y="-573.8085" font-family="Arial" font-size="14.00" fill="#c6c5fe">core/engine/request/base.request.js</text>
</g>
<!-- core/engine/request/base.request.js&#45;&gt;core/helper/runner.helper.js -->
<g id="edge13" class="edge">
<title>core/engine/request/base.request.js&#45;&gt;core/helper/runner.helper.js</title>
<path fill="none" stroke="#757575" d="M2175.2549,-589.2618C2220.8375,-622.1121 2345.5902,-712.0186 2399.3746,-750.7798"/>
<polygon fill="#757575" stroke="#757575" points="2397.5124,-753.7519 2407.6715,-756.7592 2401.6051,-748.073 2397.5124,-753.7519"/>
</g>
<!-- core/helper/authenticate.helper.js -->
<g id="node16" class="node">
<title>core/helper/authenticate.helper.js</title>
<path fill="none" stroke="#c6c5fe" d="M2527.7814,-513.0581C2527.7814,-513.0581 2321.4188,-513.0581 2321.4188,-513.0581 2317.3858,-513.0581 2313.3529,-509.0251 2313.3529,-504.9922 2313.3529,-504.9922 2313.3529,-496.9263 2313.3529,-496.9263 2313.3529,-492.8933 2317.3858,-488.8604 2321.4188,-488.8604 2321.4188,-488.8604 2527.7814,-488.8604 2527.7814,-488.8604 2531.8144,-488.8604 2535.8473,-492.8933 2535.8473,-496.9263 2535.8473,-496.9263 2535.8473,-504.9922 2535.8473,-504.9922 2535.8473,-509.0251 2531.8144,-513.0581 2527.7814,-513.0581"/>
<text text-anchor="middle" x="2424.6001" y="-497.8085" font-family="Arial" font-size="14.00" fill="#c6c5fe">core/helper/authenticate.helper.js</text>
</g>
<!-- core/engine/request/base.request.js&#45;&gt;core/helper/authenticate.helper.js -->
<g id="edge12" class="edge">
<title>core/engine/request/base.request.js&#45;&gt;core/helper/authenticate.helper.js</title>
<path fill="none" stroke="#757575" d="M2193.0926,-564.8172C2224.4056,-554.1425 2271.7193,-538.5458 2313.4766,-526.9592 2328.1983,-522.8743 2344.1332,-518.8914 2359.2149,-515.3195"/>
<polygon fill="#757575" stroke="#757575" points="2360.0414,-518.7207 2368.9812,-513.0347 2358.4468,-511.9048 2360.0414,-518.7207"/>
</g>
<!-- core/log/index.js -->
<g id="node17" class="node">
<title>core/log/index.js</title>
<path fill="none" stroke="#c6c5fe" d="M2714.3605,-398.0581C2714.3605,-398.0581 2613.162,-398.0581 2613.162,-398.0581 2609.129,-398.0581 2605.0961,-394.0251 2605.0961,-389.9922 2605.0961,-389.9922 2605.0961,-381.9263 2605.0961,-381.9263 2605.0961,-377.8933 2609.129,-373.8604 2613.162,-373.8604 2613.162,-373.8604 2714.3605,-373.8604 2714.3605,-373.8604 2718.3934,-373.8604 2722.4264,-377.8933 2722.4264,-381.9263 2722.4264,-381.9263 2722.4264,-389.9922 2722.4264,-389.9922 2722.4264,-394.0251 2718.3934,-398.0581 2714.3605,-398.0581"/>
<text text-anchor="middle" x="2663.7612" y="-382.8085" font-family="Arial" font-size="14.00" fill="#c6c5fe">core/log/index.js</text>
</g>
<!-- core/engine/request/base.request.js&#45;&gt;core/log/index.js -->
<g id="edge14" class="edge">
<title>core/engine/request/base.request.js&#45;&gt;core/log/index.js</title>
<path fill="none" stroke="#757575" d="M2277.4699,-579.4269C2355.0139,-576.3923 2456.1192,-563.4127 2535.7236,-521.9592 2587.8553,-494.8121 2630.3497,-437.9323 2650.7211,-407.03"/>
<polygon fill="#757575" stroke="#757575" points="2653.8485,-408.638 2656.3192,-398.3352 2647.9629,-404.8485 2653.8485,-408.638"/>
</g>
<!-- core/helper/authenticate.helper.js&#45;&gt;core/log/index.js -->
<g id="edge26" class="edge">
<title>core/helper/authenticate.helper.js&#45;&gt;core/log/index.js</title>
<path fill="none" stroke="#757575" d="M2449.7425,-488.8696C2492.8045,-468.1633 2580.7255,-425.8867 2629.4084,-402.4777"/>
<polygon fill="#757575" stroke="#757575" points="2631.1013,-405.5473 2638.5968,-398.0595 2628.0678,-399.2387 2631.1013,-405.5473"/>
</g>
<!-- core/log/logger.js -->
<g id="node22" class="node">
<title>core/log/logger.js</title>
<path fill="none" stroke="#c6c5fe" d="M3482.5856,-518.0581C3482.5856,-518.0581 3377.0355,-518.0581 3377.0355,-518.0581 3373.0026,-518.0581 3368.9696,-514.0251 3368.9696,-509.9922 3368.9696,-509.9922 3368.9696,-501.9263 3368.9696,-501.9263 3368.9696,-497.8933 3373.0026,-493.8604 3377.0355,-493.8604 3377.0355,-493.8604 3482.5856,-493.8604 3482.5856,-493.8604 3486.6185,-493.8604 3490.6515,-497.8933 3490.6515,-501.9263 3490.6515,-501.9263 3490.6515,-509.9922 3490.6515,-509.9922 3490.6515,-514.0251 3486.6185,-518.0581 3482.5856,-518.0581"/>
<text text-anchor="middle" x="3429.8105" y="-502.8085" font-family="Arial" font-size="14.00" fill="#c6c5fe">core/log/logger.js</text>
</g>
<!-- core/log/index.js&#45;&gt;core/log/logger.js -->
<g id="edge32" class="edge">
<title>core/log/index.js&#45;&gt;core/log/logger.js</title>
<path fill="none" stroke="#757575" d="M2722.3852,-375.2251C2859.8352,-351.4258 3197.9138,-301.2474 3286.2109,-365.9592 3329.0667,-397.3677 3283.3705,-443.7027 3322.2109,-479.9592 3332.3851,-489.4566 3345.4141,-495.6612 3358.8685,-499.676"/>
<polygon fill="#757575" stroke="#757575" points="3358.1472,-503.1047 3368.7057,-502.2281 3359.9051,-496.329 3358.1472,-503.1047"/>
</g>
<!-- core/log/logger.listener.js -->
<g id="node27" class="node">
<title>core/log/logger.listener.js</title>
<path fill="none" stroke="#c6c5fe" d="M2986.9214,-399.0581C2986.9214,-399.0581 2832.8754,-399.0581 2832.8754,-399.0581 2828.8425,-399.0581 2824.8095,-395.0251 2824.8095,-390.9922 2824.8095,-390.9922 2824.8095,-382.9263 2824.8095,-382.9263 2824.8095,-378.8933 2828.8425,-374.8604 2832.8754,-374.8604 2832.8754,-374.8604 2986.9214,-374.8604 2986.9214,-374.8604 2990.9544,-374.8604 2994.9873,-378.8933 2994.9873,-382.9263 2994.9873,-382.9263 2994.9873,-390.9922 2994.9873,-390.9922 2994.9873,-395.0251 2990.9544,-399.0581 2986.9214,-399.0581"/>
<text text-anchor="middle" x="2909.8984" y="-383.8085" font-family="Arial" font-size="14.00" fill="#c6c5fe">core/log/logger.listener.js</text>
</g>
<!-- core/log/index.js&#45;&gt;core/log/logger.listener.js -->
<g id="edge33" class="edge">
<title>core/log/index.js&#45;&gt;core/log/logger.listener.js</title>
<path fill="none" stroke="#757575" d="M2722.4045,-386.1975C2749.8709,-386.3091 2783.2996,-386.4449 2814.2824,-386.5708"/>
<polygon fill="#757575" stroke="#757575" points="2814.6695,-390.0723 2824.6836,-386.613 2814.698,-383.0723 2814.6695,-390.0723"/>
</g>
<!-- core/engine/request/rest.request.js&#45;&gt;core/engine/request/base.request.js -->
<g id="edge18" class="edge">
<title>core/engine/request/rest.request.js&#45;&gt;core/engine/request/base.request.js</title>
<path fill="none" stroke="#757575" d="M1960.9351,-548.0388C1993.9271,-552.8761 2032.0827,-558.4704 2065.9933,-563.4423"/>
<polygon fill="#757575" stroke="#757575" points="2065.5004,-566.9074 2075.9024,-564.8952 2066.5159,-559.9814 2065.5004,-566.9074"/>
</g>
<!-- core/helper/report.helper.js -->
<g id="node21" class="node">
<title>core/helper/report.helper.js</title>
<path fill="none" stroke="#cfffac" d="M3258.0763,-517.0581C3258.0763,-517.0581 3092.1327,-517.0581 3092.1327,-517.0581 3088.0997,-517.0581 3084.0668,-513.0251 3084.0668,-508.9922 3084.0668,-508.9922 3084.0668,-500.9263 3084.0668,-500.9263 3084.0668,-496.8933 3088.0997,-492.8604 3092.1327,-492.8604 3092.1327,-492.8604 3258.0763,-492.8604 3258.0763,-492.8604 3262.1092,-492.8604 3266.1422,-496.8933 3266.1422,-500.9263 3266.1422,-500.9263 3266.1422,-508.9922 3266.1422,-508.9922 3266.1422,-513.0251 3262.1092,-517.0581 3258.0763,-517.0581"/>
<text text-anchor="middle" x="3175.1045" y="-501.8085" font-family="Arial" font-size="14.00" fill="#cfffac">core/helper/report.helper.js</text>
</g>
<!-- core/engine/request/rest.request.js&#45;&gt;core/helper/report.helper.js -->
<g id="edge19" class="edge">
<title>core/engine/request/rest.request.js&#45;&gt;core/helper/report.helper.js</title>
<path fill="none" stroke="#757575" d="M1994.2959,-533.6782C2125.5768,-531.0481 2346.0552,-526.501 2535.7236,-521.9592 2725.9514,-517.4041 2947.9934,-511.3301 3074.0251,-507.8116"/>
<polygon fill="#757575" stroke="#757575" points="3074.1524,-511.3095 3084.0507,-507.5315 3073.9568,-504.3122 3074.1524,-511.3095"/>
</g>
<!-- core/engine/request/rest.request.js&#45;&gt;core/log/logger.js -->
<g id="edge20" class="edge">
<title>core/engine/request/rest.request.js&#45;&gt;core/log/logger.js</title>
<path fill="none" stroke="#757575" d="M1969.7238,-523.8855C2057.697,-512.3151 2194.6469,-494.5108 2313.4766,-479.9592 2428.1681,-465.9144 2456.3684,-456.6371 2571.7236,-449.9592 2615.5286,-447.4234 2995.6863,-448.8432 3027.998,-450.9592 3144.5609,-458.5925 3278.7993,-479.4314 3358.8486,-493.1538"/>
<polygon fill="#757575" stroke="#757575" points="3358.3672,-496.6224 3368.8167,-494.8739 3359.5576,-489.7243 3358.3672,-496.6224"/>
</g>
<!-- core/report/index.js -->
<g id="node23" class="node">
<title>core/report/index.js</title>
<path fill="none" stroke="#c6c5fe" d="M3234.5933,-301.0581C3234.5933,-301.0581 3115.6157,-301.0581 3115.6157,-301.0581 3111.5827,-301.0581 3107.5498,-297.0251 3107.5498,-292.9922 3107.5498,-292.9922 3107.5498,-284.9263 3107.5498,-284.9263 3107.5498,-280.8933 3111.5827,-276.8604 3115.6157,-276.8604 3115.6157,-276.8604 3234.5933,-276.8604 3234.5933,-276.8604 3238.6262,-276.8604 3242.6592,-280.8933 3242.6592,-284.9263 3242.6592,-284.9263 3242.6592,-292.9922 3242.6592,-292.9922 3242.6592,-297.0251 3238.6262,-301.0581 3234.5933,-301.0581"/>
<text text-anchor="middle" x="3175.1045" y="-285.8085" font-family="Arial" font-size="14.00" fill="#c6c5fe">core/report/index.js</text>
</g>
<!-- core/engine/request/rest.request.js&#45;&gt;core/report/index.js -->
<g id="edge21" class="edge">
<title>core/engine/request/rest.request.js&#45;&gt;core/report/index.js</title>
<path fill="none" stroke="#757575" d="M1889.1243,-523.8466C1912.8659,-497.5935 1973.4645,-435.666 2038.8916,-408.9592 2231.8531,-330.194 2873.6479,-299.8811 3097.3739,-291.5489"/>
<polygon fill="#757575" stroke="#757575" points="3097.5256,-295.0458 3107.39,-291.1802 3097.268,-288.0505 3097.5256,-295.0458"/>
</g>
<!-- core/engine/request/sftp.request.js&#45;&gt;core/engine/request/base.request.js -->
<g id="edge22" class="edge">
<title>core/engine/request/sftp.request.js&#45;&gt;core/engine/request/base.request.js</title>
<path fill="none" stroke="#757575" d="M1957.1859,-607.8669C1992.1813,-602.4856 2033.5461,-596.1249 2069.6254,-590.577"/>
<polygon fill="#757575" stroke="#757575" points="2070.2999,-594.0145 2079.6517,-589.0352 2069.2359,-587.0958 2070.2999,-594.0145"/>
</g>
<!-- core/engine/request/sftp.request.js&#45;&gt;core/log/logger.js -->
<g id="edge23" class="edge">
<title>core/engine/request/sftp.request.js&#45;&gt;core/log/logger.js</title>
<path fill="none" stroke="#757575" d="M1993.9894,-631.6624C2104.4159,-641.8371 2275.6949,-654.9592 2424.6001,-654.9592 2424.6001,-654.9592 2424.6001,-654.9592 2909.8984,-654.9592 3079.4032,-654.9592 3127.2166,-651.7185 3286.2109,-592.9592 3331.8532,-576.0913 3379.0308,-544.2284 3406.3337,-524.0989"/>
<polygon fill="#757575" stroke="#757575" points="3408.5624,-526.8027 3414.4728,-518.0096 3404.369,-521.1977 3408.5624,-526.8027"/>
</g>
<!-- core/engine/request/socket.request.js&#45;&gt;core/engine/request/base.request.js -->
<g id="edge24" class="edge">
<title>core/engine/request/socket.request.js&#45;&gt;core/engine/request/base.request.js</title>
<path fill="none" stroke="#757575" d="M2002.8286,-577.5148C2011.4256,-577.484 2020.102,-577.453 2028.7256,-577.4222"/>
<polygon fill="#757575" stroke="#757575" points="2028.8293,-580.9219 2038.8167,-577.3861 2028.8042,-573.922 2028.8293,-580.9219"/>
</g>
<!-- core/engine/request/socket.request.js&#45;&gt;core/log/logger.js -->
<g id="edge25" class="edge">
<title>core/engine/request/socket.request.js&#45;&gt;core/log/logger.js</title>
<path fill="none" stroke="#757575" d="M1965.8007,-590.0463C1989.4782,-592.9973 2015.1358,-595.8955 2038.8916,-597.9592 2209.8814,-612.8136 2252.9662,-616.9592 2424.6001,-616.9592 2424.6001,-616.9592 2424.6001,-616.9592 2909.8984,-616.9592 3090.7523,-616.9592 3299.3488,-551.9274 3387.261,-521.4175"/>
<polygon fill="#757575" stroke="#757575" points="3388.5978,-524.6578 3396.8791,-518.0495 3386.2842,-518.0512 3388.5978,-524.6578"/>
</g>
<!-- core/report/log4js/index.js -->
<g id="node28" class="node">
<title>core/report/log4js/index.js</title>
<path fill="none" stroke="#c6c5fe" d="M6462.2971,-260.0581C6462.2971,-260.0581 6303.3807,-260.0581 6303.3807,-260.0581 6299.3477,-260.0581 6295.3148,-256.0251 6295.3148,-251.9922 6295.3148,-251.9922 6295.3148,-243.9263 6295.3148,-243.9263 6295.3148,-239.8933 6299.3477,-235.8604 6303.3807,-235.8604 6303.3807,-235.8604 6462.2971,-235.8604 6462.2971,-235.8604 6466.33,-235.8604 6470.3629,-239.8933 6470.3629,-243.9263 6470.3629,-243.9263 6470.3629,-251.9922 6470.3629,-251.9922 6470.3629,-256.0251 6466.33,-260.0581 6462.2971,-260.0581"/>
<text text-anchor="middle" x="6382.8389" y="-244.8085" font-family="Arial" font-size="14.00" fill="#c6c5fe">core/report/log4js/index.js</text>
</g>
<!-- core/log/logger.js&#45;&gt;core/report/log4js/index.js -->
<g id="edge34" class="edge">
<title>core/log/logger.js&#45;&gt;core/report/log4js/index.js</title>
<path fill="none" stroke="#757575" d="M3490.9976,-505.9592C3609.794,-505.9592 3879.9758,-505.9592 4107.2637,-505.9592 4107.2637,-505.9592 4107.2637,-505.9592 5716.2412,-505.9592 5957.7373,-505.9592 6055.0143,-611.1054 6259.0771,-481.9592 6336.3554,-433.0518 6368.2747,-318.7835 6378.6577,-270.3223"/>
<polygon fill="#757575" stroke="#757575" points="6382.1413,-270.7543 6380.7032,-260.2575 6375.2816,-269.3601 6382.1413,-270.7543"/>
</g>
<!-- core/report/index.js&#45;&gt;core/report/log4js/index.js -->
<g id="edge39" class="edge">
<title>core/report/index.js&#45;&gt;core/report/log4js/index.js</title>
<path fill="none" stroke="#757575" d="M3211.4849,-301.054C3335.3439,-341.117 3752.6236,-466.9592 4107.2637,-466.9592 4107.2637,-466.9592 4107.2637,-466.9592 4524.5762,-466.9592 5125.0541,-466.9592 5275.5903,-477.9457 5875.5889,-453.9592 6046.3136,-447.1341 6110.6375,-511.5713 6259.0771,-426.9592 6321.7489,-391.2357 6359.7809,-309.2247 6375.0644,-269.846"/>
<polygon fill="#757575" stroke="#757575" points="6378.3823,-270.9661 6378.6181,-260.3739 6371.8284,-268.5072 6378.3823,-270.9661"/>
</g>
<!-- core/report/report&#45;portal/index.js -->
<g id="node31" class="node">
<title>core/report/report&#45;portal/index.js</title>
<path fill="none" stroke="#c6c5fe" d="M3529.444,-301.0581C3529.444,-301.0581 3330.1771,-301.0581 3330.1771,-301.0581 3326.1442,-301.0581 3322.1112,-297.0251 3322.1112,-292.9922 3322.1112,-292.9922 3322.1112,-284.9263 3322.1112,-284.9263 3322.1112,-280.8933 3326.1442,-276.8604 3330.1771,-276.8604 3330.1771,-276.8604 3529.444,-276.8604 3529.444,-276.8604 3533.4769,-276.8604 3537.5099,-280.8933 3537.5099,-284.9263 3537.5099,-284.9263 3537.5099,-292.9922 3537.5099,-292.9922 3537.5099,-297.0251 3533.4769,-301.0581 3529.444,-301.0581"/>
<text text-anchor="middle" x="3429.8105" y="-285.8085" font-family="Arial" font-size="14.00" fill="#c6c5fe">core/report/report&#45;portal/index.js</text>
</g>
<!-- core/report/index.js&#45;&gt;core/report/report&#45;portal/index.js -->
<g id="edge40" class="edge">
<title>core/report/index.js&#45;&gt;core/report/report&#45;portal/index.js</title>
<path fill="none" stroke="#757575" d="M3242.6923,-288.9592C3263.9701,-288.9592 3288.1265,-288.9592 3311.8462,-288.9592"/>
<polygon fill="#757575" stroke="#757575" points="3311.9755,-292.4593 3321.9754,-288.9592 3311.9754,-285.4593 3311.9755,-292.4593"/>
</g>
<!-- core/report/reporter/index.js -->
<g id="node32" class="node">
<title>core/report/reporter/index.js</title>
<path fill="none" stroke="#c6c5fe" d="M3515.7095,-167.0581C3515.7095,-167.0581 3343.9116,-167.0581 3343.9116,-167.0581 3339.8786,-167.0581 3335.8457,-163.0251 3335.8457,-158.9922 3335.8457,-158.9922 3335.8457,-150.9263 3335.8457,-150.9263 3335.8457,-146.8933 3339.8786,-142.8604 3343.9116,-142.8604 3343.9116,-142.8604 3515.7095,-142.8604 3515.7095,-142.8604 3519.7424,-142.8604 3523.7754,-146.8933 3523.7754,-150.9263 3523.7754,-150.9263 3523.7754,-158.9922 3523.7754,-158.9922 3523.7754,-163.0251 3519.7424,-167.0581 3515.7095,-167.0581"/>
<text text-anchor="middle" x="3429.8105" y="-151.8085" font-family="Arial" font-size="14.00" fill="#c6c5fe">core/report/reporter/index.js</text>
</g>
<!-- core/report/index.js&#45;&gt;core/report/reporter/index.js -->
<g id="edge41" class="edge">
<title>core/report/index.js&#45;&gt;core/report/reporter/index.js</title>
<path fill="none" stroke="#757575" d="M3198.1572,-276.8313C3243.6936,-252.8747 3345.2788,-199.4311 3397.4789,-171.9688"/>
<polygon fill="#757575" stroke="#757575" points="3399.406,-174.9098 3406.6264,-167.1563 3396.1468,-168.7148 3399.406,-174.9098"/>
</g>
<!-- core/report/utils/index.js -->
<g id="node33" class="node">
<title>core/report/utils/index.js</title>
<path fill="none" stroke="#c6c5fe" d="M3794.8502,-50.0581C3794.8502,-50.0581 3647.3002,-50.0581 3647.3002,-50.0581 3643.2672,-50.0581 3639.2343,-46.0251 3639.2343,-41.9922 3639.2343,-41.9922 3639.2343,-33.9263 3639.2343,-33.9263 3639.2343,-29.8933 3643.2672,-25.8604 3647.3002,-25.8604 3647.3002,-25.8604 3794.8502,-25.8604 3794.8502,-25.8604 3798.8831,-25.8604 3802.9161,-29.8933 3802.9161,-33.9263 3802.9161,-33.9263 3802.9161,-41.9922 3802.9161,-41.9922 3802.9161,-46.0251 3798.8831,-50.0581 3794.8502,-50.0581"/>
<text text-anchor="middle" x="3721.0752" y="-34.8085" font-family="Arial" font-size="14.00" fill="#c6c5fe">core/report/utils/index.js</text>
</g>
<!-- core/report/index.js&#45;&gt;core/report/utils/index.js -->
<g id="edge42" class="edge">
<title>core/report/index.js&#45;&gt;core/report/utils/index.js</title>
<path fill="none" stroke="#757575" d="M3183.0931,-276.7411C3202.9307,-247.4009 3257.5353,-172.5471 3322.2109,-133.9592 3417.2811,-77.2368 3543.9428,-54.0038 3628.7877,-44.5037"/>
<polygon fill="#757575" stroke="#757575" points="3629.3548,-47.963 3638.9224,-43.4119 3628.605,-41.0032 3629.3548,-47.963"/>
</g>
<!-- core/helper/index.js -->
<g id="node24" class="node">
<title>core/helper/index.js</title>
<path fill="none" stroke="#c6c5fe" d="M1452.6202,-475.0581C1452.6202,-475.0581 1330.952,-475.0581 1330.952,-475.0581 1326.9191,-475.0581 1322.8861,-471.0251 1322.8861,-466.9922 1322.8861,-466.9922 1322.8861,-458.9263 1322.8861,-458.9263 1322.8861,-454.8933 1326.9191,-450.8604 1330.952,-450.8604 1330.952,-450.8604 1452.6202,-450.8604 1452.6202,-450.8604 1456.6532,-450.8604 1460.6861,-454.8933 1460.6861,-458.9263 1460.6861,-458.9263 1460.6861,-466.9922 1460.6861,-466.9922 1460.6861,-471.0251 1456.6532,-475.0581 1452.6202,-475.0581"/>
<text text-anchor="middle" x="1391.7861" y="-459.8085" font-family="Arial" font-size="14.00" fill="#c6c5fe">core/helper/index.js</text>
</g>
<!-- core/helper/index.js&#45;&gt;core/helper/runner.helper.js -->
<g id="edge29" class="edge">
<title>core/helper/index.js&#45;&gt;core/helper/runner.helper.js</title>
<path fill="none" stroke="#757575" d="M1410.2444,-475.2616C1432.8527,-491.328 1470.6565,-521.6097 1491.0938,-556.9592 1525.4091,-616.3132 1474.6372,-662.8146 1527.0938,-706.9592 1591.0168,-760.7535 2194.1933,-748.3346 2277.4766,-754.9592 2291.7117,-756.0915 2306.7111,-757.3932 2321.4697,-758.7371"/>
<polygon fill="#757575" stroke="#757575" points="2321.3576,-762.2415 2331.6363,-759.6727 2321.9991,-755.271 2321.3576,-762.2415"/>
</g>
<!-- core/helper/index.js&#45;&gt;core/helper/config.helper.js -->
<g id="edge27" class="edge">
<title>core/helper/index.js&#45;&gt;core/helper/config.helper.js</title>
<path fill="none" stroke="#757575" d="M1405.7118,-475.2965C1425.329,-492.8625 1461.9597,-526.3516 1491.0938,-556.9592 1508.0443,-574.7672 1506.2866,-585.8632 1527.0938,-598.9592 1663.9371,-685.0884 1716.8553,-692.9592 1878.5474,-692.9592 1878.5474,-692.9592 1878.5474,-692.9592 2909.8984,-692.9592 3077.3845,-692.9592 3119.5475,-696.3795 3286.2109,-712.9592 3305.6397,-714.892 3326.4641,-717.5789 3346.059,-720.3862"/>
<polygon fill="#757575" stroke="#757575" points="3345.7795,-723.8824 3356.1799,-721.8619 3346.7895,-716.9557 3345.7795,-723.8824"/>
</g>
<!-- core/helper/index.js&#45;&gt;core/helper/report.helper.js -->
<g id="edge28" class="edge">
<title>core/helper/index.js&#45;&gt;core/helper/report.helper.js</title>
<path fill="none" stroke="#757575" d="M1460.7846,-463.4025C1638.806,-464.6726 2128.1998,-468.9656 2535.7236,-479.9592 2725.8797,-485.089 2947.72,-494.5418 3073.7773,-500.2391"/>
<polygon fill="#757575" stroke="#757575" points="3073.6572,-503.7371 3083.8054,-500.6935 3073.9741,-496.7443 3073.6572,-503.7371"/>
</g>
<!-- core/helper/timer.helper.js -->
<g id="node25" class="node">
<title>core/helper/timer.helper.js</title>
<path fill="none" stroke="#cfffac" d="M1702.8855,-435.0581C1702.8855,-435.0581 1542.4113,-435.0581 1542.4113,-435.0581 1538.3784,-435.0581 1534.3454,-431.0251 1534.3454,-426.9922 1534.3454,-426.9922 1534.3454,-418.9263 1534.3454,-418.9263 1534.3454,-414.8933 1538.3784,-410.8604 1542.4113,-410.8604 1542.4113,-410.8604 1702.8855,-410.8604 1702.8855,-410.8604 1706.9185,-410.8604 1710.9514,-414.8933 1710.9514,-418.9263 1710.9514,-418.9263 1710.9514,-426.9922 1710.9514,-426.9922 1710.9514,-431.0251 1706.9185,-435.0581 1702.8855,-435.0581"/>
<text text-anchor="middle" x="1622.6484" y="-419.8085" font-family="Arial" font-size="14.00" fill="#cfffac">core/helper/timer.helper.js</text>
</g>
<!-- core/helper/index.js&#45;&gt;core/helper/timer.helper.js -->
<g id="edge30" class="edge">
<title>core/helper/index.js&#45;&gt;core/helper/timer.helper.js</title>
<path fill="none" stroke="#757575" d="M1460.7397,-451.0121C1486.5411,-446.5417 1516.0617,-441.4268 1542.7687,-436.7995"/>
<polygon fill="#757575" stroke="#757575" points="1543.5974,-440.2081 1552.853,-435.0522 1542.4023,-433.3109 1543.5974,-440.2081"/>
</g>
<!-- core/helper/random.js -->
<g id="node26" class="node">
<title>core/helper/random.js</title>
<path fill="none" stroke="#cfffac" d="M162.213,-828.0581C162.213,-828.0581 26.5449,-828.0581 26.5449,-828.0581 22.5119,-828.0581 18.479,-824.0251 18.479,-819.9922 18.479,-819.9922 18.479,-811.9263 18.479,-811.9263 18.479,-807.8933 22.5119,-803.8604 26.5449,-803.8604 26.5449,-803.8604 162.213,-803.8604 162.213,-803.8604 166.2459,-803.8604 170.2788,-807.8933 170.2788,-811.9263 170.2788,-811.9263 170.2788,-819.9922 170.2788,-819.9922 170.2788,-824.0251 166.2459,-828.0581 162.213,-828.0581"/>
<text text-anchor="middle" x="94.3789" y="-812.8085" font-family="Arial" font-size="14.00" fill="#cfffac">core/helper/random.js</text>
</g>
<!-- core/log/logger.listener.js&#45;&gt;core/helper/report.helper.js -->
<g id="edge35" class="edge">
<title>core/log/logger.listener.js&#45;&gt;core/helper/report.helper.js</title>
<path fill="none" stroke="#757575" d="M2937.2813,-399.1429C2985.3474,-420.5293 3084.8923,-464.8205 3138.6952,-488.7594"/>
<polygon fill="#757575" stroke="#757575" points="3137.3114,-491.9744 3147.8706,-492.8419 3140.157,-485.5789 3137.3114,-491.9744"/>
</g>
<!-- core/log/logger.listener.js&#45;&gt;core/log/logger.js -->
<g id="edge36" class="edge">
<title>core/log/logger.listener.js&#45;&gt;core/log/logger.js</title>
<path fill="none" stroke="#757575" d="M2994.6786,-399.0667C3097.4113,-414.0975 3260.0787,-439.186 3286.2109,-450.9592 3304.9433,-459.3986 3303.7792,-470.8821 3322.2109,-479.9592 3333.5703,-485.5534 3346.2099,-489.9902 3358.7183,-493.4949"/>
<polygon fill="#757575" stroke="#757575" points="3358.134,-496.96 3368.6947,-496.1101 3359.909,-490.1887 3358.134,-496.96"/>
</g>
<!-- core/log/logger.listener.js&#45;&gt;core/report/index.js -->
<g id="edge37" class="edge">
<title>core/log/logger.listener.js&#45;&gt;core/report/index.js</title>
<path fill="none" stroke="#757575" d="M2942.6839,-374.8442C2990.6953,-357.1028 3080.1448,-324.0491 3132.974,-304.5275"/>
<polygon fill="#757575" stroke="#757575" points="3134.227,-307.7958 3142.3939,-301.0466 3131.8007,-301.2298 3134.227,-307.7958"/>
</g>
<!-- core/runner/listener.js -->
<g id="node29" class="node">
<title>core/runner/listener.js</title>
<path fill="none" stroke="#c6c5fe" d="M3241.8795,-399.0581C3241.8795,-399.0581 3108.3295,-399.0581 3108.3295,-399.0581 3104.2965,-399.0581 3100.2636,-395.0251 3100.2636,-390.9922 3100.2636,-390.9922 3100.2636,-382.9263 3100.2636,-382.9263 3100.2636,-378.8933 3104.2965,-374.8604 3108.3295,-374.8604 3108.3295,-374.8604 3241.8795,-374.8604 3241.8795,-374.8604 3245.9125,-374.8604 3249.9454,-378.8933 3249.9454,-382.9263 3249.9454,-382.9263 3249.9454,-390.9922 3249.9454,-390.9922 3249.9454,-395.0251 3245.9125,-399.0581 3241.8795,-399.0581"/>
<text text-anchor="middle" x="3175.1045" y="-383.8085" font-family="Arial" font-size="14.00" fill="#c6c5fe">core/runner/listener.js</text>
</g>
<!-- core/log/logger.listener.js&#45;&gt;core/runner/listener.js -->
<g id="edge38" class="edge">
<title>core/log/logger.listener.js&#45;&gt;core/runner/listener.js</title>
<path fill="none" stroke="#757575" d="M2995.2711,-386.9592C3025.6088,-386.9592 3059.7404,-386.9592 3090.0514,-386.9592"/>
<polygon fill="#757575" stroke="#757575" points="3090.1733,-390.4593 3100.1733,-386.9592 3090.1732,-383.4593 3090.1733,-390.4593"/>
</g>
<!-- core/report/log4js/Log4jsReportPortalAppender.js -->
<g id="node34" class="node">
<title>core/report/log4js/Log4jsReportPortalAppender.js</title>
<path fill="none" stroke="#cfffac" d="M6820.3048,-281.0581C6820.3048,-281.0581 6514.7431,-281.0581 6514.7431,-281.0581 6510.7102,-281.0581 6506.6772,-277.0251 6506.6772,-272.9922 6506.6772,-272.9922 6506.6772,-264.9263 6506.6772,-264.9263 6506.6772,-260.8933 6510.7102,-256.8604 6514.7431,-256.8604 6514.7431,-256.8604 6820.3048,-256.8604 6820.3048,-256.8604 6824.3377,-256.8604 6828.3706,-260.8933 6828.3706,-264.9263 6828.3706,-264.9263 6828.3706,-272.9922 6828.3706,-272.9922 6828.3706,-277.0251 6824.3377,-281.0581 6820.3048,-281.0581"/>
<text text-anchor="middle" x="6667.5239" y="-265.8085" font-family="Arial" font-size="14.00" fill="#cfffac">core/report/log4js/Log4jsReportPortalAppender.js</text>
</g>
<!-- core/report/log4js/index.js&#45;&gt;core/report/log4js/Log4jsReportPortalAppender.js -->
<g id="edge43" class="edge">
<title>core/report/log4js/index.js&#45;&gt;core/report/log4js/Log4jsReportPortalAppender.js</title>
<path fill="none" stroke="#757575" d="M6470.5767,-254.4313C6478.9451,-255.0486 6487.6104,-255.6878 6496.4292,-256.3383"/>
<polygon fill="#757575" stroke="#757575" points="6496.2132,-259.8318 6506.4437,-257.077 6496.7283,-252.8508 6496.2132,-259.8318"/>
</g>
<!-- core/report/log4js/Logger.js -->
<g id="node35" class="node">
<title>core/report/log4js/Logger.js</title>
<path fill="none" stroke="#cfffac" d="M6751.8331,-239.0581C6751.8331,-239.0581 6583.2148,-239.0581 6583.2148,-239.0581 6579.1818,-239.0581 6575.1489,-235.0251 6575.1489,-230.9922 6575.1489,-230.9922 6575.1489,-222.9263 6575.1489,-222.9263 6575.1489,-218.8933 6579.1818,-214.8604 6583.2148,-214.8604 6583.2148,-214.8604 6751.8331,-214.8604 6751.8331,-214.8604 6755.866,-214.8604 6759.899,-218.8933 6759.899,-222.9263 6759.899,-222.9263 6759.899,-230.9922 6759.899,-230.9922 6759.899,-235.0251 6755.866,-239.0581 6751.8331,-239.0581"/>
<text text-anchor="middle" x="6667.5239" y="-223.8085" font-family="Arial" font-size="14.00" fill="#cfffac">core/report/log4js/Logger.js</text>
</g>
<!-- core/report/log4js/index.js&#45;&gt;core/report/log4js/Logger.js -->
<g id="edge44" class="edge">
<title>core/report/log4js/index.js&#45;&gt;core/report/log4js/Logger.js</title>
<path fill="none" stroke="#757575" d="M6470.5767,-241.4872C6500.3732,-239.2892 6533.9324,-236.8137 6564.7927,-234.5373"/>
<polygon fill="#757575" stroke="#757575" points="6565.4302,-237.9999 6575.1455,-233.7736 6564.9151,-231.0188 6565.4302,-237.9999"/>
</g>
<!-- core/runner/listener.js&#45;&gt;core/log/logger.js -->
<g id="edge91" class="edge">
<title>core/runner/listener.js&#45;&gt;core/log/logger.js</title>
<path fill="none" stroke="#757575" d="M3250.1355,-395.3482C3263.0438,-399.2583 3275.6752,-404.8864 3286.2109,-412.9592 3313.0437,-433.5194 3295.4526,-459.3024 3322.2109,-479.9592 3332.8787,-488.1945 3345.7759,-493.869 3358.8807,-497.7677"/>
<polygon fill="#757575" stroke="#757575" points="3358.3467,-501.2466 3368.9089,-500.4159 3360.134,-494.4786 3358.3467,-501.2466"/>
</g>
<!-- core/qtest/qtest.listener.js -->
<g id="node30" class="node">
<title>core/qtest/qtest.listener.js</title>
<path fill="none" stroke="#cfffac" d="M173.2779,-870.0581C173.2779,-870.0581 15.4799,-870.0581 15.4799,-870.0581 11.447,-870.0581 7.4141,-866.0251 7.4141,-861.9922 7.4141,-861.9922 7.4141,-853.9263 7.4141,-853.9263 7.4141,-849.8933 11.447,-845.8604 15.4799,-845.8604 15.4799,-845.8604 173.2779,-845.8604 173.2779,-845.8604 177.3108,-845.8604 181.3438,-849.8933 181.3438,-853.9263 181.3438,-853.9263 181.3438,-861.9922 181.3438,-861.9922 181.3438,-866.0251 177.3108,-870.0581 173.2779,-870.0581"/>
<text text-anchor="middle" x="94.3789" y="-854.8085" font-family="Arial" font-size="14.00" fill="#cfffac">core/qtest/qtest.listener.js</text>
</g>
<!-- core/report/report&#45;portal/helper/index.js -->
<g id="node37" class="node">
<title>core/report/report&#45;portal/helper/index.js</title>
<path fill="none" stroke="#c6c5fe" d="M5837.1812,-302.0581C5837.1812,-302.0581 5595.3012,-302.0581 5595.3012,-302.0581 5591.2683,-302.0581 5587.2354,-298.0251 5587.2354,-293.9922 5587.2354,-293.9922 5587.2354,-285.9263 5587.2354,-285.9263 5587.2354,-281.8933 5591.2683,-277.8604 5595.3012,-277.8604 5595.3012,-277.8604 5837.1812,-277.8604 5837.1812,-277.8604 5841.2141,-277.8604 5845.2471,-281.8933 5845.2471,-285.9263 5845.2471,-285.9263 5845.2471,-293.9922 5845.2471,-293.9922 5845.2471,-298.0251 5841.2141,-302.0581 5837.1812,-302.0581"/>
<text text-anchor="middle" x="5716.2412" y="-286.8085" font-family="Arial" font-size="14.00" fill="#c6c5fe">core/report/report&#45;portal/helper/index.js</text>
</g>
<!-- core/report/report&#45;portal/index.js&#45;&gt;core/report/report&#45;portal/helper/index.js -->
<g id="edge65" class="edge">
<title>core/report/report&#45;portal/index.js&#45;&gt;core/report/report&#45;portal/helper/index.js</title>
<path fill="none" stroke="#757575" d="M3462.929,-301.0481C3491.6937,-310.9076 3534.6982,-324.1235 3573.4102,-329.9592 3719.0553,-351.9147 3757.4578,-335.4036 3904.7402,-336.9592 4421.4553,-342.4169 4550.8203,-344.0466 5067.3984,-330.9592 5269.0458,-325.8506 5319.8016,-328.7643 5520.8936,-312.9592 5551.9386,-310.5192 5585.6538,-306.8991 5616.1976,-303.2492"/>
<polygon fill="#757575" stroke="#757575" points="5616.9186,-306.6876 5626.4259,-302.0119 5616.0779,-299.7382 5616.9186,-306.6876"/>
</g>
<!-- core/report/report&#45;portal/core/index.js -->
<g id="node39" class="node">
<title>core/report/report&#45;portal/core/index.js</title>
<path fill="none" stroke="#c6c5fe" d="M4639.8337,-326.0581C4639.8337,-326.0581 4409.3186,-326.0581 4409.3186,-326.0581 4405.2857,-326.0581 4401.2527,-322.0251 4401.2527,-317.9922 4401.2527,-317.9922 4401.2527,-309.9263 4401.2527,-309.9263 4401.2527,-305.8933 4405.2857,-301.8604 4409.3186,-301.8604 4409.3186,-301.8604 4639.8337,-301.8604 4639.8337,-301.8604 4643.8667,-301.8604 4647.8996,-305.8933 4647.8996,-309.9263 4647.8996,-309.9263 4647.8996,-317.9922 4647.8996,-317.9922 4647.8996,-322.0251 4643.8667,-326.0581 4639.8337,-326.0581"/>
<text text-anchor="middle" x="4524.5762" y="-310.8085" font-family="Arial" font-size="14.00" fill="#c6c5fe">core/report/report&#45;portal/core/index.js</text>
</g>
<!-- core/report/report&#45;portal/index.js&#45;&gt;core/report/report&#45;portal/core/index.js -->
<g id="edge63" class="edge">
<title>core/report/report&#45;portal/index.js&#45;&gt;core/report/report&#45;portal/core/index.js</title>
<path fill="none" stroke="#757575" d="M3498.6155,-301.0325C3522.246,-304.6426 3548.9129,-308.1257 3573.4102,-309.9592 3864.4679,-331.7441 4207.0246,-325.3542 4391.226,-319.31"/>
<polygon fill="#757575" stroke="#757575" points="4391.3532,-322.8078 4401.2312,-318.9769 4391.1202,-315.8117 4391.3532,-322.8078"/>
</g>
<!-- core/report/report&#45;portal/cucumber&#45;js/index.js -->
<g id="node43" class="node">
<title>core/report/report&#45;portal/cucumber&#45;js/index.js</title>
<path fill="none" stroke="#c6c5fe" d="M3860.8396,-301.0581C3860.8396,-301.0581 3581.3108,-301.0581 3581.3108,-301.0581 3577.2779,-301.0581 3573.2449,-297.0251 3573.2449,-292.9922 3573.2449,-292.9922 3573.2449,-284.9263 3573.2449,-284.9263 3573.2449,-280.8933 3577.2779,-276.8604 3581.3108,-276.8604 3581.3108,-276.8604 3860.8396,-276.8604 3860.8396,-276.8604 3864.8725,-276.8604 3868.9055,-280.8933 3868.9055,-284.9263 3868.9055,-284.9263 3868.9055,-292.9922 3868.9055,-292.9922 3868.9055,-297.0251 3864.8725,-301.0581 3860.8396,-301.0581"/>
<text text-anchor="middle" x="3721.0752" y="-285.8085" font-family="Arial" font-size="14.00" fill="#c6c5fe">core/report/report&#45;portal/cucumber&#45;js/index.js</text>
</g>
<!-- core/report/report&#45;portal/index.js&#45;&gt;core/report/report&#45;portal/cucumber&#45;js/index.js -->
<g id="edge64" class="edge">
<title>core/report/report&#45;portal/index.js&#45;&gt;core/report/report&#45;portal/cucumber&#45;js/index.js</title>
<path fill="none" stroke="#757575" d="M3537.4392,-288.9592C3545.8254,-288.9592 3554.3923,-288.9592 3563.0178,-288.9592"/>
<polygon fill="#757575" stroke="#757575" points="3563.163,-292.4593 3573.163,-288.9592 3563.163,-285.4593 3563.163,-292.4593"/>
</g>
<!-- core/report/report&#45;portal/jasmine/index.js -->
<g id="node47" class="node">
<title>core/report/report&#45;portal/jasmine/index.js</title>
<path fill="none" stroke="#c6c5fe" d="M3846.8396,-225.0581C3846.8396,-225.0581 3595.3108,-225.0581 3595.3108,-225.0581 3591.2779,-225.0581 3587.2449,-221.0251 3587.2449,-216.9922 3587.2449,-216.9922 3587.2449,-208.9263 3587.2449,-208.9263 3587.2449,-204.8933 3591.2779,-200.8604 3595.3108,-200.8604 3595.3108,-200.8604 3846.8396,-200.8604 3846.8396,-200.8604 3850.8725,-200.8604 3854.9055,-204.8933 3854.9055,-208.9263 3854.9055,-208.9263 3854.9055,-216.9922 3854.9055,-216.9922 3854.9055,-221.0251 3850.8725,-225.0581 3846.8396,-225.0581"/>
<text text-anchor="middle" x="3721.0752" y="-209.8085" font-family="Arial" font-size="14.00" fill="#c6c5fe">core/report/report&#45;portal/jasmine/index.js</text>
</g>
<!-- core/report/report&#45;portal/index.js&#45;&gt;core/report/report&#45;portal/jasmine/index.js -->
<g id="edge66" class="edge">
<title>core/report/report&#45;portal/index.js&#45;&gt;core/report/report&#45;portal/jasmine/index.js</title>
<path fill="none" stroke="#757575" d="M3476.2844,-276.8328C3527.5407,-263.4584 3610.0056,-241.9407 3664.8596,-227.6276"/>
<polygon fill="#757575" stroke="#757575" points="3665.9746,-230.954 3674.7669,-225.0425 3664.2072,-224.1807 3665.9746,-230.954"/>
</g>
<!-- core/report/report&#45;portal/mocha/index.js -->
<g id="node48" class="node">
<title>core/report/report&#45;portal/mocha/index.js</title>
<path fill="none" stroke="#c6c5fe" d="M4229.8072,-145.0581C4229.8072,-145.0581 3984.7202,-145.0581 3984.7202,-145.0581 3980.6872,-145.0581 3976.6543,-141.0251 3976.6543,-136.9922 3976.6543,-136.9922 3976.6543,-128.9263 3976.6543,-128.9263 3976.6543,-124.8933 3980.6872,-120.8604 3984.7202,-120.8604 3984.7202,-120.8604 4229.8072,-120.8604 4229.8072,-120.8604 4233.8401,-120.8604 4237.8731,-124.8933 4237.8731,-128.9263 4237.8731,-128.9263 4237.8731,-136.9922 4237.8731,-136.9922 4237.8731,-141.0251 4233.8401,-145.0581 4229.8072,-145.0581"/>
<text text-anchor="middle" x="4107.2637" y="-129.8085" font-family="Arial" font-size="14.00" fill="#c6c5fe">core/report/report&#45;portal/mocha/index.js</text>
</g>
<!-- core/report/report&#45;portal/index.js&#45;&gt;core/report/report&#45;portal/mocha/index.js -->
<g id="edge67" class="edge">
<title>core/report/report&#45;portal/index.js&#45;&gt;core/report/report&#45;portal/mocha/index.js</title>
<path fill="none" stroke="#757575" d="M3442.8241,-276.8723C3466.6432,-255.5551 3519.7545,-211.6715 3573.4102,-191.9592 3700.9386,-145.1072 3856.2321,-132.4747 3966.376,-130.2866"/>
<polygon fill="#757575" stroke="#757575" points="3966.6191,-133.7831 3976.5574,-130.1115 3966.4987,-126.7841 3966.6191,-133.7831"/>
</g>
<!-- core/report/reporter/report.js -->
<g id="node52" class="node">
<title>core/report/reporter/report.js</title>
<path fill="none" stroke="#c6c5fe" d="M4990.8843,-90.0581C4990.8843,-90.0581 4815.8794,-90.0581 4815.8794,-90.0581 4811.8464,-90.0581 4807.8135,-86.0251 4807.8135,-81.9922 4807.8135,-81.9922 4807.8135,-73.9263 4807.8135,-73.9263 4807.8135,-69.8933 4811.8464,-65.8604 4815.8794,-65.8604 4815.8794,-65.8604 4990.8843,-65.8604 4990.8843,-65.8604 4994.9173,-65.8604 4998.9502,-69.8933 4998.9502,-73.9263 4998.9502,-73.9263 4998.9502,-81.9922 4998.9502,-81.9922 4998.9502,-86.0251 4994.9173,-90.0581 4990.8843,-90.0581"/>
<text text-anchor="middle" x="4903.3818" y="-74.8085" font-family="Arial" font-size="14.00" fill="#c6c5fe">core/report/reporter/report.js</text>
</g>
<!-- core/report/reporter/index.js&#45;&gt;core/report/reporter/report.js -->
<g id="edge75" class="edge">
<title>core/report/reporter/index.js&#45;&gt;core/report/reporter/report.js</title>
<path fill="none" stroke="#757575" d="M3496.4747,-142.881C3520.6377,-138.8743 3548.1878,-134.7336 3573.4102,-131.9592 3720.0516,-115.8295 3757.3784,-118.9142 3904.7402,-111.9592 4229.9946,-96.6084 4615.155,-85.4901 4797.5191,-80.6502"/>
<polygon fill="#757575" stroke="#757575" points="4797.739,-84.1457 4807.6429,-80.3824 4797.5538,-77.1481 4797.739,-84.1457"/>
</g>
<!-- core/report/utils/index.js&#45;&gt;core/report/log4js/index.js -->
<g id="edge77" class="edge">
<title>core/report/utils/index.js&#45;&gt;core/report/log4js/index.js</title>
<path fill="none" stroke="#757575" d="M3803.201,-37.9592C3948.6169,-37.9592 4260.9274,-37.9592 4524.5762,-37.9592 4524.5762,-37.9592 4524.5762,-37.9592 5716.2412,-37.9592 5957.6821,-37.9592 6048.9353,59.9277 6259.0771,-58.9592 6325.0243,-96.2686 6361.9178,-184.8962 6376.0528,-226.1441"/>
<polygon fill="#757575" stroke="#757575" points="6372.7731,-227.3744 6379.2309,-235.7737 6379.4204,-225.1805 6372.7731,-227.3744"/>
</g>
<!-- core/report/report&#45;portal/core/AbstractAgent.js -->
<g id="node36" class="node">
<title>core/report/report&#45;portal/core/AbstractAgent.js</title>
<path fill="none" stroke="#c6c5fe" d="M5454.3722,-398.0581C5454.3722,-398.0581 5169.9198,-398.0581 5169.9198,-398.0581 5165.8869,-398.0581 5161.8539,-394.0251 5161.8539,-389.9922 5161.8539,-389.9922 5161.8539,-381.9263 5161.8539,-381.9263 5161.8539,-377.8933 5165.8869,-373.8604 5169.9198,-373.8604 5169.9198,-373.8604 5454.3722,-373.8604 5454.3722,-373.8604 5458.4051,-373.8604 5462.4381,-377.8933 5462.4381,-381.9263 5462.4381,-381.9263 5462.4381,-389.9922 5462.4381,-389.9922 5462.4381,-394.0251 5458.4051,-398.0581 5454.3722,-398.0581"/>
<text text-anchor="middle" x="5312.146" y="-382.8085" font-family="Arial" font-size="14.00" fill="#c6c5fe">core/report/report&#45;portal/core/AbstractAgent.js</text>
</g>
<!-- core/report/report&#45;portal/core/AbstractAgent.js&#45;&gt;core/report/log4js/index.js -->
<g id="edge45" class="edge">
<title>core/report/report&#45;portal/core/AbstractAgent.js&#45;&gt;core/report/log4js/index.js</title>
<path fill="none" stroke="#757575" d="M5462.6349,-392.6064C5692.2409,-400.7547 6118.2248,-407.4613 6259.0771,-352.9592 6304.6441,-335.3274 6345.2628,-293.4084 6366.731,-268.1927"/>
<polygon fill="#757575" stroke="#757575" points="6369.5567,-270.2686 6373.2569,-260.3409 6364.1733,-265.7943 6369.5567,-270.2686"/>
</g>
<!-- core/report/report&#45;portal/core/AbstractAgent.js&#45;&gt;core/report/report&#45;portal/helper/index.js -->
<g id="edge46" class="edge">
<title>core/report/report&#45;portal/core/AbstractAgent.js&#45;&gt;core/report/report&#45;portal/helper/index.js</title>
<path fill="none" stroke="#757575" d="M5444.8912,-373.8827C5470.3006,-370.3178 5496.5585,-365.7598 5520.8936,-359.9592 5577.5915,-346.4445 5640.6482,-322.0534 5679.3807,-305.9313"/>
<polygon fill="#757575" stroke="#757575" points="5680.8215,-309.1225 5688.6852,-302.0223 5678.1101,-302.6689 5680.8215,-309.1225"/>
</g>
<!-- core/report/report&#45;portal/helper/Constant.js -->
<g id="node44" class="node">
<title>core/report/report&#45;portal/helper/Constant.js</title>
<path fill="none" stroke="#cfffac" d="M6217.3387,-344.0581C6217.3387,-344.0581 5953.3273,-344.0581 5953.3273,-344.0581 5949.2943,-344.0581 5945.2614,-340.0251 5945.2614,-335.9922 5945.2614,-335.9922 5945.2614,-327.9263 5945.2614,-327.9263 5945.2614,-323.8933 5949.2943,-319.8604 5953.3273,-319.8604 5953.3273,-319.8604 6217.3387,-319.8604 6217.3387,-319.8604 6221.3717,-319.8604 6225.4046,-323.8933 6225.4046,-327.9263 6225.4046,-327.9263 6225.4046,-335.9922 6225.4046,-335.9922 6225.4046,-340.0251 6221.3717,-344.0581 6217.3387,-344.0581"/>
<text text-anchor="middle" x="6085.333" y="-328.8085" font-family="Arial" font-size="14.00" fill="#cfffac">core/report/report&#45;portal/helper/Constant.js</text>
</g>
<!-- core/report/report&#45;portal/helper/index.js&#45;&gt;core/report/report&#45;portal/helper/Constant.js -->
<g id="edge60" class="edge">
<title>core/report/report&#45;portal/helper/index.js&#45;&gt;core/report/report&#45;portal/helper/Constant.js</title>
<path fill="none" stroke="#757575" d="M5822.5027,-302.051C5868.3342,-307.2663 5922.0732,-313.3814 5968.9747,-318.7185"/>
<polygon fill="#757575" stroke="#757575" points="5968.8511,-322.2269 5979.1827,-319.8801 5969.6426,-315.2718 5968.8511,-322.2269"/>
</g>
<!-- core/report/report&#45;portal/helper/ReportObjectHolder.js -->
<g id="node45" class="node">
<title>core/report/report&#45;portal/helper/ReportObjectHolder.js</title>
<path fill="none" stroke="#cfffac" d="M6251.2557,-302.0581C6251.2557,-302.0581 5919.4103,-302.0581 5919.4103,-302.0581 5915.3773,-302.0581 5911.3444,-298.0251 5911.3444,-293.9922 5911.3444,-293.9922 5911.3444,-285.9263 5911.3444,-285.9263 5911.3444,-281.8933 5915.3773,-277.8604 5919.4103,-277.8604 5919.4103,-277.8604 6251.2557,-277.8604 6251.2557,-277.8604 6255.2887,-277.8604 6259.3216,-281.8933 6259.3216,-285.9263 6259.3216,-285.9263 6259.3216,-293.9922 6259.3216,-293.9922 6259.3216,-298.0251 6255.2887,-302.0581 6251.2557,-302.0581"/>
<text text-anchor="middle" x="6085.333" y="-286.8085" font-family="Arial" font-size="14.00" fill="#cfffac">core/report/report&#45;portal/helper/ReportObjectHolder.js</text>
</g>
<!-- core/report/report&#45;portal/helper/index.js&#45;&gt;core/report/report&#45;portal/helper/ReportObjectHolder.js -->
<g id="edge61" class="edge">
<title>core/report/report&#45;portal/helper/index.js&#45;&gt;core/report/report&#45;portal/helper/ReportObjectHolder.js</title>
<path fill="none" stroke="#757575" d="M5845.3316,-289.9592C5863.4815,-289.9592 5882.4202,-289.9592 5901.3511,-289.9592"/>
<polygon fill="#757575" stroke="#757575" points="5901.5527,-293.4593 5911.5527,-289.9592 5901.5526,-286.4593 5901.5527,-293.4593"/>
</g>
<!-- core/report/report&#45;portal/helper/Utils.js -->
<g id="node46" class="node">
<title>core/report/report&#45;portal/helper/Utils.js</title>
<path fill="none" stroke="#c6c5fe" d="M6203.025,-260.0581C6203.025,-260.0581 5967.641,-260.0581 5967.641,-260.0581 5963.608,-260.0581 5959.5751,-256.0251 5959.5751,-251.9922 5959.5751,-251.9922 5959.5751,-243.9263 5959.5751,-243.9263 5959.5751,-239.8933 5963.608,-235.8604 5967.641,-235.8604 5967.641,-235.8604 6203.025,-235.8604 6203.025,-235.8604 6207.058,-235.8604 6211.0909,-239.8933 6211.0909,-243.9263 6211.0909,-243.9263 6211.0909,-251.9922 6211.0909,-251.9922 6211.0909,-256.0251 6207.058,-260.0581 6203.025,-260.0581"/>
<text text-anchor="middle" x="6085.333" y="-244.8085" font-family="Arial" font-size="14.00" fill="#c6c5fe">core/report/report&#45;portal/helper/Utils.js</text>
</g>
<!-- core/report/report&#45;portal/helper/index.js&#45;&gt;core/report/report&#45;portal/helper/Utils.js -->
<g id="edge62" class="edge">
<title>core/report/report&#45;portal/helper/index.js&#45;&gt;core/report/report&#45;portal/helper/Utils.js</title>
<path fill="none" stroke="#757575" d="M5822.5027,-277.8674C5868.3342,-272.6521 5922.0732,-266.537 5968.9747,-261.2"/>
<polygon fill="#757575" stroke="#757575" points="5969.6426,-264.6467 5979.1827,-260.0384 5968.8511,-257.6915 5969.6426,-264.6467"/>
</g>
<!-- core/report/report&#45;portal/core/ReportPortalAgent.js -->
<g id="node38" class="node">
<title>core/report/report&#45;portal/core/ReportPortalAgent.js</title>
<path fill="none" stroke="#c6c5fe" d="M5059.3492,-322.0581C5059.3492,-322.0581 4747.4145,-322.0581 4747.4145,-322.0581 4743.3816,-322.0581 4739.3486,-318.0251 4739.3486,-313.9922 4739.3486,-313.9922 4739.3486,-305.9263 4739.3486,-305.9263 4739.3486,-301.8933 4743.3816,-297.8604 4747.4145,-297.8604 4747.4145,-297.8604 5059.3492,-297.8604 5059.3492,-297.8604 5063.3821,-297.8604 5067.415,-301.8933 5067.415,-305.9263 5067.415,-305.9263 5067.415,-313.9922 5067.415,-313.9922 5067.415,-318.0251 5063.3821,-322.0581 5059.3492,-322.0581"/>
<text text-anchor="middle" x="4903.3818" y="-306.8085" font-family="Arial" font-size="14.00" fill="#c6c5fe">core/report/report&#45;portal/core/ReportPortalAgent.js</text>
</g>
<!-- core/report/report&#45;portal/core/ReportPortalAgent.js&#45;&gt;core/report/report&#45;portal/core/AbstractAgent.js -->
<g id="edge47" class="edge">
<title>core/report/report&#45;portal/core/ReportPortalAgent.js&#45;&gt;core/report/report&#45;portal/core/AbstractAgent.js</title>
<path fill="none" stroke="#757575" d="M4968.6037,-322.0857C5041.7313,-335.682 5160.1235,-357.6943 5237.0531,-371.9975"/>
<polygon fill="#757575" stroke="#757575" points="5236.6851,-375.489 5247.1564,-373.876 5237.9647,-368.6069 5236.6851,-375.489"/>
</g>
<!-- core/report/report&#45;portal/core/ReportPortalAgent.js&#45;&gt;core/report/report&#45;portal/helper/index.js -->
<g id="edge48" class="edge">
<title>core/report/report&#45;portal/core/ReportPortalAgent.js&#45;&gt;core/report/report&#45;portal/helper/index.js</title>
<path fill="none" stroke="#757575" d="M5067.8761,-305.9119C5217.4903,-302.2307 5435.8759,-296.8575 5577.0311,-293.3844"/>
<polygon fill="#757575" stroke="#757575" points="5577.148,-296.8827 5587.0588,-293.1377 5576.9757,-289.8848 5577.148,-296.8827"/>
</g>
<!-- core/report/report&#45;portal/core/index.js&#45;&gt;core/report/report&#45;portal/core/ReportPortalAgent.js -->
<g id="edge49" class="edge">
<title>core/report/report&#45;portal/core/index.js&#45;&gt;core/report/report&#45;portal/core/ReportPortalAgent.js</title>
<path fill="none" stroke="#757575" d="M4647.8253,-312.6578C4673.7921,-312.3836 4701.6563,-312.0894 4729.0947,-311.7996"/>
<polygon fill="#757575" stroke="#757575" points="4729.2175,-315.2986 4739.18,-311.6931 4729.1435,-308.299 4729.2175,-315.2986"/>
</g>
<!-- core/report/report&#45;portal/cucumber&#45;js/CucumberReportAgent.js -->
<g id="node40" class="node">
<title>core/report/report&#45;portal/cucumber&#45;js/CucumberReportAgent.js</title>
<path fill="none" stroke="#c6c5fe" d="M4301.7447,-284.0581C4301.7447,-284.0581 3912.7827,-284.0581 3912.7827,-284.0581 3908.7497,-284.0581 3904.7168,-280.0251 3904.7168,-275.9922 3904.7168,-275.9922 3904.7168,-267.9263 3904.7168,-267.9263 3904.7168,-263.8933 3908.7497,-259.8604 3912.7827,-259.8604 3912.7827,-259.8604 4301.7447,-259.8604 4301.7447,-259.8604 4305.7776,-259.8604 4309.8105,-263.8933 4309.8105,-267.9263 4309.8105,-267.9263 4309.8105,-275.9922 4309.8105,-275.9922 4309.8105,-280.0251 4305.7776,-284.0581 4301.7447,-284.0581"/>
<text text-anchor="middle" x="4107.2637" y="-268.8085" font-family="Arial" font-size="14.00" fill="#c6c5fe">core/report/report&#45;portal/cucumber&#45;js/CucumberReportAgent.js</text>
</g>
<!-- core/report/report&#45;portal/cucumber&#45;js/CucumberReportAgent.js&#45;&gt;core/report/log4js/index.js -->
<g id="edge50" class="edge">
<title>core/report/report&#45;portal/cucumber&#45;js/CucumberReportAgent.js&#45;&gt;core/report/log4js/index.js</title>
<path fill="none" stroke="#757575" d="M4181.9657,-259.9036C4228.866,-252.9184 4290.6931,-244.7718 4345.7871,-240.9592 5040.0664,-192.9141 5215.6561,-230.0704 5911.5889,-226.9592 6066.0266,-226.2688 6105.183,-213.9954 6259.0771,-226.9592 6276.8678,-228.4579 6295.946,-231.1479 6313.6658,-234.1133"/>
<polygon fill="#757575" stroke="#757575" points="6313.4722,-237.6316 6323.9219,-235.8841 6314.6633,-230.7336 6313.4722,-237.6316"/>
</g>
<!-- core/report/report&#45;portal/cucumber&#45;js/CucumberReportAgent.js&#45;&gt;core/report/report&#45;portal/helper/index.js -->
<g id="edge53" class="edge">
<title>core/report/report&#45;portal/cucumber&#45;js/CucumberReportAgent.js&#45;&gt;core/report/report&#45;portal/helper/index.js</title>
<path fill="none" stroke="#757575" d="M4220.8739,-259.9067C4260.3667,-256.2618 4304.9835,-252.752 4345.7871,-250.9592 4795.5212,-231.1998 5328.7377,-261.9224 5576.6208,-279.3213"/>
<polygon fill="#757575" stroke="#757575" points="5576.5418,-282.8243 5586.7634,-280.0369 5577.0346,-275.8417 5576.5418,-282.8243"/>
</g>
<!-- core/report/report&#45;portal/cucumber&#45;js/CucumberReportAgent.js&#45;&gt;core/report/report&#45;portal/core/index.js -->
<g id="edge51" class="edge">
<title>core/report/report&#45;portal/cucumber&#45;js/CucumberReportAgent.js&#45;&gt;core/report/report&#45;portal/core/index.js</title>
<path fill="none" stroke="#757575" d="M4227.1282,-284.0229C4279.5021,-289.294 4341.0511,-295.4885 4394.5305,-300.8709"/>
<polygon fill="#757575" stroke="#757575" points="4394.4652,-304.3819 4404.7654,-301.901 4395.1662,-297.4171 4394.4652,-304.3819"/>
</g>
<!-- core/report/report&#45;portal/cucumber&#45;js/ScenarioObject.js -->
<g id="node41" class="node">
<title>core/report/report&#45;portal/cucumber&#45;js/ScenarioObject.js</title>
<path fill="none" stroke="#c6c5fe" d="M4695.0887,-284.0581C4695.0887,-284.0581 4354.0637,-284.0581 4354.0637,-284.0581 4350.0307,-284.0581 4345.9978,-280.0251 4345.9978,-275.9922 4345.9978,-275.9922 4345.9978,-267.9263 4345.9978,-267.9263 4345.9978,-263.8933 4350.0307,-259.8604 4354.0637,-259.8604 4354.0637,-259.8604 4695.0887,-259.8604 4695.0887,-259.8604 4699.1216,-259.8604 4703.1545,-263.8933 4703.1545,-267.9263 4703.1545,-267.9263 4703.1545,-275.9922 4703.1545,-275.9922 4703.1545,-280.0251 4699.1216,-284.0581 4695.0887,-284.0581"/>
<text text-anchor="middle" x="4524.5762" y="-268.8085" font-family="Arial" font-size="14.00" fill="#c6c5fe">core/report/report&#45;portal/cucumber&#45;js/ScenarioObject.js</text>
</g>
<!-- core/report/report&#45;portal/cucumber&#45;js/CucumberReportAgent.js&#45;&gt;core/report/report&#45;portal/cucumber&#45;js/ScenarioObject.js -->
<g id="edge52" class="edge">
<title>core/report/report&#45;portal/cucumber&#45;js/CucumberReportAgent.js&#45;&gt;core/report/report&#45;portal/cucumber&#45;js/ScenarioObject.js</title>
<path fill="none" stroke="#757575" d="M4309.8077,-271.9592C4318.4648,-271.9592 4327.136,-271.9592 4335.7615,-271.9592"/>
<polygon fill="#757575" stroke="#757575" points="4335.8625,-275.4593 4345.8625,-271.9592 4335.8625,-268.4593 4335.8625,-275.4593"/>
</g>
<!-- core/report/report&#45;portal/cucumber&#45;js/ScenarioObject.js&#45;&gt;core/report/report&#45;portal/helper/index.js -->
<g id="edge56" class="edge">
<title>core/report/report&#45;portal/cucumber&#45;js/ScenarioObject.js&#45;&gt;core/report/report&#45;portal/helper/index.js</title>
<path fill="none" stroke="#757575" d="M4703.3027,-274.6589C4942.1064,-278.266 5360.2738,-284.5824 5577.0637,-287.857"/>
<polygon fill="#757575" stroke="#757575" points="5577.1816,-291.359 5587.2333,-288.0106 5577.2874,-284.3598 5577.1816,-291.359"/>
</g>
<!-- core/report/report&#45;portal/cucumber&#45;js/CucumberReportListener.js -->
<g id="node42" class="node">
<title>core/report/report&#45;portal/cucumber&#45;js/CucumberReportListener.js</title>
<path fill="none" stroke="#c6c5fe" d="M5513.0755,-440.0581C5513.0755,-440.0581 5111.2165,-440.0581 5111.2165,-440.0581 5107.1835,-440.0581 5103.1506,-436.0251 5103.1506,-431.9922 5103.1506,-431.9922 5103.1506,-423.9263 5103.1506,-423.9263 5103.1506,-419.8933 5107.1835,-415.8604 5111.2165,-415.8604 5111.2165,-415.8604 5513.0755,-415.8604 5513.0755,-415.8604 5517.1085,-415.8604 5521.1414,-419.8933 5521.1414,-423.9263 5521.1414,-423.9263 5521.1414,-431.9922 5521.1414,-431.9922 5521.1414,-436.0251 5517.1085,-440.0581 5513.0755,-440.0581"/>
<text text-anchor="middle" x="5312.146" y="-424.8085" font-family="Arial" font-size="14.00" fill="#c6c5fe">core/report/report&#45;portal/cucumber&#45;js/CucumberReportListener.js</text>
</g>
<!-- core/report/report&#45;portal/cucumber&#45;js/CucumberReportListener.js&#45;&gt;core/report/log4js/index.js -->
<g id="edge54" class="edge">
<title>core/report/report&#45;portal/cucumber&#45;js/CucumberReportListener.js&#45;&gt;core/report/log4js/index.js</title>
<path fill="none" stroke="#757575" d="M5520.9293,-438.1172C5759.6276,-446.4456 6133.5706,-448.5077 6259.0771,-387.9592 6312.5655,-362.1547 6352.8417,-301.6661 6371.4502,-269.2929"/>
<polygon fill="#757575" stroke="#757575" points="6374.6983,-270.6552 6376.5203,-260.2182 6368.5873,-267.241 6374.6983,-270.6552"/>
</g>
<!-- core/report/report&#45;portal/cucumber&#45;js/CucumberReportListener.js&#45;&gt;core/report/report&#45;portal/helper/index.js -->
<g id="edge55" class="edge">
<title>core/report/report&#45;portal/cucumber&#45;js/CucumberReportListener.js&#45;&gt;core/report/report&#45;portal/helper/index.js</title>
<path fill="none" stroke="#757575" d="M5488.4384,-415.8541C5499.5325,-413.3643 5510.4345,-410.4246 5520.8936,-406.9592 5588.6983,-384.4933 5658.1045,-335.4551 5693.0733,-308.5463"/>
<polygon fill="#757575" stroke="#757575" points="5695.4647,-311.12 5701.1998,-302.2116 5691.1611,-305.5992 5695.4647,-311.12"/>
</g>
<!-- core/report/report&#45;portal/cucumber&#45;js/index.js&#45;&gt;core/report/report&#45;portal/cucumber&#45;js/CucumberReportAgent.js -->
<g id="edge57" class="edge">
<title>core/report/report&#45;portal/cucumber&#45;js/index.js&#45;&gt;core/report/report&#45;portal/cucumber&#45;js/CucumberReportAgent.js</title>
<path fill="none" stroke="#757575" d="M3869.0054,-282.4474C3877.4185,-282.077 3885.9528,-281.7013 3894.5394,-281.3233"/>
<polygon fill="#757575" stroke="#757575" points="3894.8029,-284.8152 3904.6393,-280.8787 3894.495,-277.822 3894.8029,-284.8152"/>
</g>
<!-- core/report/report&#45;portal/cucumber&#45;js/index.js&#45;&gt;core/report/report&#45;portal/cucumber&#45;js/CucumberReportListener.js -->
<g id="edge58" class="edge">
<title>core/report/report&#45;portal/cucumber&#45;js/index.js&#45;&gt;core/report/report&#45;portal/cucumber&#45;js/CucumberReportListener.js</title>
<path fill="none" stroke="#757575" d="M3859.1427,-301.0212C4156.8223,-327.0272 4856.8705,-388.1852 5163.6766,-414.9886"/>
<polygon fill="#757575" stroke="#757575" points="5163.7107,-418.5048 5173.9774,-415.8885 5164.32,-411.5314 5163.7107,-418.5048"/>
</g>
<!-- core/report/report&#45;portal/helper/Utils.js&#45;&gt;core/report/log4js/index.js -->
<g id="edge59" class="edge">
<title>core/report/report&#45;portal/helper/Utils.js&#45;&gt;core/report/log4js/index.js</title>
<path fill="none" stroke="#757575" d="M6211.5023,-247.9592C6236.0582,-247.9592 6261.4548,-247.9592 6284.9308,-247.9592"/>
<polygon fill="#757575" stroke="#757575" points="6285.2178,-251.4593 6295.2178,-247.9592 6285.2177,-244.4593 6285.2178,-251.4593"/>
</g>
<!-- core/report/report&#45;portal/jasmine/JasmineReportAgent.js -->
<g id="node49" class="node">
<title>core/report/report&#45;portal/jasmine/JasmineReportAgent.js</title>
<path fill="none" stroke="#c6c5fe" d="M4281.2966,-200.0581C4281.2966,-200.0581 3933.2307,-200.0581 3933.2307,-200.0581 3929.1978,-200.0581 3925.1648,-196.0251 3925.1648,-191.9922 3925.1648,-191.9922 3925.1648,-183.9263 3925.1648,-183.9263 3925.1648,-179.8933 3929.1978,-175.8604 3933.2307,-175.8604 3933.2307,-175.8604 4281.2966,-175.8604 4281.2966,-175.8604 4285.3296,-175.8604 4289.3625,-179.8933 4289.3625,-183.9263 4289.3625,-183.9263 4289.3625,-191.9922 4289.3625,-191.9922 4289.3625,-196.0251 4285.3296,-200.0581 4281.2966,-200.0581"/>
<text text-anchor="middle" x="4107.2637" y="-184.8085" font-family="Arial" font-size="14.00" fill="#c6c5fe">core/report/report&#45;portal/jasmine/JasmineReportAgent.js</text>
</g>
<!-- core/report/report&#45;portal/jasmine/index.js&#45;&gt;core/report/report&#45;portal/jasmine/JasmineReportAgent.js -->
<g id="edge69" class="edge">
<title>core/report/report&#45;portal/jasmine/index.js&#45;&gt;core/report/report&#45;portal/jasmine/JasmineReportAgent.js</title>
<path fill="none" stroke="#757575" d="M3854.7907,-204.3031C3874.2687,-203.0422 3894.6398,-201.7235 3914.9986,-200.4056"/>
<polygon fill="#757575" stroke="#757575" points="3915.235,-203.8977 3924.9879,-199.7589 3914.7827,-196.9123 3915.235,-203.8977"/>
</g>
<!-- core/report/report&#45;portal/mocha/MochaReportListener.js -->
<g id="node51" class="node">
<title>core/report/report&#45;portal/mocha/MochaReportListener.js</title>
<path fill="none" stroke="#c6c5fe" d="M5484.296,-128.0581C5484.296,-128.0581 5139.996,-128.0581 5139.996,-128.0581 5135.963,-128.0581 5131.9301,-124.0251 5131.9301,-119.9922 5131.9301,-119.9922 5131.9301,-111.9263 5131.9301,-111.9263 5131.9301,-107.8933 5135.963,-103.8604 5139.996,-103.8604 5139.996,-103.8604 5484.296,-103.8604 5484.296,-103.8604 5488.329,-103.8604 5492.3619,-107.8933 5492.3619,-111.9263 5492.3619,-111.9263 5492.3619,-119.9922 5492.3619,-119.9922 5492.3619,-124.0251 5488.329,-128.0581 5484.296,-128.0581"/>
<text text-anchor="middle" x="5312.146" y="-112.8085" font-family="Arial" font-size="14.00" fill="#c6c5fe">core/report/report&#45;portal/mocha/MochaReportListener.js</text>
</g>
<!-- core/report/report&#45;portal/mocha/index.js&#45;&gt;core/report/report&#45;portal/mocha/MochaReportListener.js -->
<g id="edge74" class="edge">
<title>core/report/report&#45;portal/mocha/index.js&#45;&gt;core/report/report&#45;portal/mocha/MochaReportListener.js</title>
<path fill="none" stroke="#757575" d="M4237.9259,-131.1157C4451.1655,-128.107 4874.8973,-122.1285 5121.6597,-118.6469"/>
<polygon fill="#757575" stroke="#757575" points="5121.8685,-122.1444 5131.8181,-118.5035 5121.7697,-115.145 5121.8685,-122.1444"/>
</g>
<!-- core/report/report&#45;portal/jasmine/JasmineReportAgent.js&#45;&gt;core/report/report&#45;portal/helper/index.js -->
<g id="edge68" class="edge">
<title>core/report/report&#45;portal/jasmine/JasmineReportAgent.js&#45;&gt;core/report/report&#45;portal/helper/index.js</title>
<path fill="none" stroke="#757575" d="M4289.3715,-186.3213C4559.3565,-186.0372 5081.2592,-193.716 5520.8936,-248.9592 5567.9218,-254.8687 5620.4613,-266.1674 5659.1981,-275.4096"/>
<polygon fill="#757575" stroke="#757575" points="5658.6963,-278.8889 5669.2384,-277.8327 5660.3386,-272.0843 5658.6963,-278.8889"/>
</g>
<!-- core/report/report&#45;portal/mocha/MochaListener.js -->
<g id="node50" class="node">
<title>core/report/report&#45;portal/mocha/MochaListener.js</title>
<path fill="none" stroke="#c6c5fe" d="M5867.3708,-166.0581C5867.3708,-166.0581 5565.1116,-166.0581 5565.1116,-166.0581 5561.0787,-166.0581 5557.0458,-162.0251 5557.0458,-157.9922 5557.0458,-157.9922 5557.0458,-149.9263 5557.0458,-149.9263 5557.0458,-145.8933 5561.0787,-141.8604 5565.1116,-141.8604 5565.1116,-141.8604 5867.3708,-141.8604 5867.3708,-141.8604 5871.4037,-141.8604 5875.4367,-145.8933 5875.4367,-149.9263 5875.4367,-149.9263 5875.4367,-157.9922 5875.4367,-157.9922 5875.4367,-162.0251 5871.4037,-166.0581 5867.3708,-166.0581"/>
<text text-anchor="middle" x="5716.2412" y="-150.8085" font-family="Arial" font-size="14.00" fill="#c6c5fe">core/report/report&#45;portal/mocha/MochaListener.js</text>
</g>
<!-- core/report/report&#45;portal/mocha/MochaListener.js&#45;&gt;core/report/log4js/index.js -->
<g id="edge70" class="edge">
<title>core/report/report&#45;portal/mocha/MochaListener.js&#45;&gt;core/report/log4js/index.js</title>
<path fill="none" stroke="#757575" d="M5875.4519,-142.909C5985.2825,-139.7766 6133.5439,-144.5215 6259.0771,-179.9592 6296.1077,-190.4128 6334.251,-213.6078 6358.224,-229.9919"/>
<polygon fill="#757575" stroke="#757575" points="6356.4826,-233.0446 6366.6862,-235.897 6360.4884,-227.3041 6356.4826,-233.0446"/>
</g>
<!-- core/report/report&#45;portal/mocha/MochaReportListener.js&#45;&gt;core/report/log4js/index.js -->
<g id="edge71" class="edge">
<title>core/report/report&#45;portal/mocha/MochaReportListener.js&#45;&gt;core/report/log4js/index.js</title>
<path fill="none" stroke="#757575" d="M5492.5432,-105.8258C5727.5656,-95.1079 6124.3721,-86.2197 6259.0771,-138.9592 6305.786,-157.2466 6346.5269,-201.5533 6367.5924,-227.7016"/>
<polygon fill="#757575" stroke="#757575" points="6365.0322,-230.1081 6373.9623,-235.8093 6370.5365,-225.7836 6365.0322,-230.1081"/>
</g>
<!-- core/report/report&#45;portal/mocha/MochaReportListener.js&#45;&gt;core/report/report&#45;portal/helper/index.js -->
<g id="edge72" class="edge">
<title>core/report/report&#45;portal/mocha/MochaReportListener.js&#45;&gt;core/report/report&#45;portal/helper/index.js</title>
<path fill="none" stroke="#757575" d="M5362.1423,-128.0405C5405.1155,-139.185 5468.2898,-157.3976 5520.8936,-179.9592 5583.7126,-206.9022 5652.2744,-248.6454 5689.1371,-272.2034"/>
<polygon fill="#757575" stroke="#757575" points="5687.5,-275.312 5697.8032,-277.7808 5691.2884,-269.4257 5687.5,-275.312"/>
</g>
<!-- core/report/report&#45;portal/mocha/MochaReportListener.js&#45;&gt;core/report/report&#45;portal/mocha/MochaListener.js -->
<g id="edge73" class="edge">
<title>core/report/report&#45;portal/mocha/MochaReportListener.js&#45;&gt;core/report/report&#45;portal/mocha/MochaListener.js</title>
<path fill="none" stroke="#757575" d="M5440.2818,-128.0088C5484.1236,-132.1315 5533.3506,-136.7607 5577.9575,-140.9554"/>
<polygon fill="#757575" stroke="#757575" points="5577.711,-144.4476 5587.9948,-141.8993 5578.3664,-137.4783 5577.711,-144.4476"/>
</g>
<!-- core/report/reporter/report.js&#45;&gt;core/report/log4js/index.js -->
<g id="edge76" class="edge">
<title>core/report/reporter/report.js&#45;&gt;core/report/log4js/index.js</title>
<path fill="none" stroke="#757575" d="M4999.0427,-74.4945C5289.2539,-64.6289 6146.7315,-40.4688 6259.0771,-94.9592 6316.4321,-122.7778 6355.9248,-191.3199 6373.1255,-226.4467"/>
<polygon fill="#757575" stroke="#757575" points="6370.1148,-228.2664 6377.5634,-235.801 6376.4392,-225.2659 6370.1148,-228.2664"/>
</g>
<!-- core/runner/cli.js -->
<g id="node53" class="node">
<title>core/runner/cli.js</title>
<path fill="none" stroke="#c6c5fe" d="M576.3495,-702.0581C576.3495,-702.0581 474.0743,-702.0581 474.0743,-702.0581 470.0414,-702.0581 466.0084,-698.0251 466.0084,-693.9922 466.0084,-693.9922 466.0084,-685.9263 466.0084,-685.9263 466.0084,-681.8933 470.0414,-677.8604 474.0743,-677.8604 474.0743,-677.8604 576.3495,-677.8604 576.3495,-677.8604 580.3825,-677.8604 584.4154,-681.8933 584.4154,-685.9263 584.4154,-685.9263 584.4154,-693.9922 584.4154,-693.9922 584.4154,-698.0251 580.3825,-702.0581 576.3495,-702.0581"/>
<text text-anchor="middle" x="525.2119" y="-686.8085" font-family="Arial" font-size="14.00" fill="#c6c5fe">core/runner/cli.js</text>
</g>
<!-- core/runner/cli.js&#45;&gt;core/config/log4js/index.js -->
<g id="edge78" class="edge">
<title>core/runner/cli.js&#45;&gt;core/config/log4js/index.js</title>
<path fill="none" stroke="#757575" d="M574.2632,-702.0489C660.7248,-723.3591 839.8831,-767.5162 932.8911,-790.4399"/>
<polygon fill="#757575" stroke="#757575" points="932.1591,-793.8641 942.7061,-792.859 933.8343,-787.0675 932.1591,-793.8641"/>
</g>
<!-- core/runner/cli.js&#45;&gt;core/log/index.js -->
<g id="edge80" class="edge">
<title>core/runner/cli.js&#45;&gt;core/log/index.js</title>
<path fill="none" stroke="#757575" d="M531.9351,-677.7142C568.7309,-612.5003 752.834,-308.9592 991.8003,-308.9592 991.8003,-308.9592 991.8003,-308.9592 1878.5474,-308.9592 2144.4743,-308.9592 2458.6525,-353.2433 2594.9583,-374.6445"/>
<polygon fill="#757575" stroke="#757575" points="2594.4302,-378.1044 2604.8537,-376.2071 2595.5221,-371.1901 2594.4302,-378.1044"/>
</g>
<!-- core/runner/cli.js&#45;&gt;core/report/index.js -->
<g id="edge81" class="edge">
<title>core/runner/cli.js&#45;&gt;core/report/index.js</title>
<path fill="none" stroke="#757575" d="M526.751,-677.8058C534.1511,-621.3245 567.8952,-385.1913 620.5635,-336.9592 744.1519,-223.7806 824.2189,-270.9592 991.8003,-270.9592 991.8003,-270.9592 991.8003,-270.9592 2663.7612,-270.9592 2817.4872,-270.9592 2997.0482,-279.1849 3097.2656,-284.515"/>
<polygon fill="#757575" stroke="#757575" points="3097.1329,-288.0128 3107.306,-285.0535 3097.5078,-281.0229 3097.1329,-288.0128"/>
</g>
<!-- core/runner/cli.js&#45;&gt;core/helper/index.js -->
<g id="edge79" class="edge">
<title>core/runner/cli.js&#45;&gt;core/helper/index.js</title>
<path fill="none" stroke="#757575" d="M571.4963,-677.835C718.6423,-639.2899 1175.4133,-519.6383 1335.5899,-477.6799"/>
<polygon fill="#757575" stroke="#757575" points="1336.9184,-480.9501 1345.7051,-475.0302 1335.1446,-474.1785 1336.9184,-480.9501"/>
</g>
<!-- core/runner/cli.js&#45;&gt;core/report/log4js/index.js -->
<g id="edge82" class="edge">
<title>core/runner/cli.js&#45;&gt;core/report/log4js/index.js</title>
<path fill="none" stroke="#757575" d="M544.778,-702.142C556.5068,-709.61 571.6095,-719.5196 584.5635,-728.9592 601.1681,-741.0592 602.1256,-748.8945 620.5635,-757.9592 848.8266,-870.1812 931.8591,-844.9592 1186.2168,-844.9592 1186.2168,-844.9592 1186.2168,-844.9592 1391.7861,-844.9592 1732.8259,-844.9592 1817.1443,-882.9592 2158.1841,-882.9592 2158.1841,-882.9592 2158.1841,-882.9592 5716.2412,-882.9592 6004.5126,-882.9592 6072.507,-747.7136 6259.0771,-527.9592 6328.1366,-446.6166 6364.9958,-320.6458 6377.6859,-270.0763"/>
<polygon fill="#757575" stroke="#757575" points="6381.123,-270.7544 6380.0921,-260.2099 6374.3223,-269.0958 6381.123,-270.7544"/>
</g>
<!-- core/runner/execute.js -->
<g id="node54" class="node">
<title>core/runner/execute.js</title>
<path fill="none" stroke="#c6c5fe" d="M813.056,-896.0581C813.056,-896.0581 675.153,-896.0581 675.153,-896.0581 671.1201,-896.0581 667.0871,-892.0251 667.0871,-887.9922 667.0871,-887.9922 667.0871,-879.9263 667.0871,-879.9263 667.0871,-875.8933 671.1201,-871.8604 675.153,-871.8604 675.153,-871.8604 813.056,-871.8604 813.056,-871.8604 817.0889,-871.8604 821.1218,-875.8933 821.1218,-879.9263 821.1218,-879.9263 821.1218,-887.9922 821.1218,-887.9922 821.1218,-892.0251 817.0889,-896.0581 813.056,-896.0581"/>
<text text-anchor="middle" x="744.1045" y="-880.8085" font-family="Arial" font-size="14.00" fill="#c6c5fe">core/runner/execute.js</text>
</g>
<!-- core/runner/cli.js&#45;&gt;core/runner/execute.js -->
<g id="edge83" class="edge">
<title>core/runner/cli.js&#45;&gt;core/runner/execute.js</title>
<path fill="none" stroke="#757575" d="M530.5874,-702.2705C546.1821,-737.4441 592.1304,-837.1848 620.5635,-857.9592 631.352,-865.8418 644.0078,-871.4445 657.0299,-875.4063"/>
<polygon fill="#757575" stroke="#757575" points="656.4664,-878.8801 667.0344,-878.1266 658.3031,-872.1254 656.4664,-878.8801"/>
</g>
<!-- services/common/build.info.service.js -->
<g id="node55" class="node">
<title>services/common/build.info.service.js</title>
<path fill="none" stroke="#c6c5fe" d="M859.6206,-702.0581C859.6206,-702.0581 628.5883,-702.0581 628.5883,-702.0581 624.5554,-702.0581 620.5224,-698.0251 620.5224,-693.9922 620.5224,-693.9922 620.5224,-685.9263 620.5224,-685.9263 620.5224,-681.8933 624.5554,-677.8604 628.5883,-677.8604 628.5883,-677.8604 859.6206,-677.8604 859.6206,-677.8604 863.6536,-677.8604 867.6865,-681.8933 867.6865,-685.9263 867.6865,-685.9263 867.6865,-693.9922 867.6865,-693.9922 867.6865,-698.0251 863.6536,-702.0581 859.6206,-702.0581"/>
<text text-anchor="middle" x="744.1045" y="-686.8085" font-family="Arial" font-size="14.00" fill="#c6c5fe">services/common/build.info.service.js</text>
</g>
<!-- core/runner/cli.js&#45;&gt;services/common/build.info.service.js -->
<g id="edge84" class="edge">
<title>core/runner/cli.js&#45;&gt;services/common/build.info.service.js</title>
<path fill="none" stroke="#757575" d="M584.4474,-689.9592C592.6347,-689.9592 601.3007,-689.9592 610.1937,-689.9592"/>
<polygon fill="#757575" stroke="#757575" points="610.3174,-693.4593 620.3174,-689.9592 610.3173,-686.4593 610.3174,-693.4593"/>
</g>
<!-- core/runner/execute.js&#45;&gt;core/helper/runner.helper.js -->
<g id="edge85" class="edge">
<title>core/runner/execute.js&#45;&gt;core/helper/runner.helper.js</title>
<path fill="none" stroke="#757575" d="M821.1756,-883.6793C909.3945,-883.3835 1058.2265,-882.9592 1186.2168,-882.9592 1186.2168,-882.9592 1186.2168,-882.9592 1391.7861,-882.9592 1786.8351,-882.9592 1888.2433,-875.4956 2277.4766,-807.9592 2311.0135,-802.1402 2348.0499,-792.303 2376.5731,-783.9645"/>
<polygon fill="#757575" stroke="#757575" points="2377.6935,-787.283 2386.2874,-781.0867 2375.7051,-780.5714 2377.6935,-787.283"/>
</g>
<!-- services/common/build.info.service.js&#45;&gt;core/base/base.service.js -->
<g id="edge95" class="edge">
<title>services/common/build.info.service.js&#45;&gt;core/base/base.service.js</title>
<path fill="none" stroke="#757575" d="M867.9524,-689.9592C876.9061,-689.9592 885.8598,-689.9592 894.6264,-689.9592"/>
<polygon fill="#757575" stroke="#757575" points="894.8203,-693.4593 904.8203,-689.9592 894.8203,-686.4593 894.8203,-693.4593"/>
</g>
<!-- core/runner/hook.js -->
<g id="node56" class="node">
<title>core/runner/hook.js</title>
<path fill="none" stroke="#c6c5fe" d="M1245.9918,-378.0581C1245.9918,-378.0581 1126.4418,-378.0581 1126.4418,-378.0581 1122.4088,-378.0581 1118.3759,-374.0251 1118.3759,-369.9922 1118.3759,-369.9922 1118.3759,-361.9263 1118.3759,-361.9263 1118.3759,-357.8933 1122.4088,-353.8604 1126.4418,-353.8604 1126.4418,-353.8604 1245.9918,-353.8604 1245.9918,-353.8604 1250.0248,-353.8604 1254.0577,-357.8933 1254.0577,-361.9263 1254.0577,-361.9263 1254.0577,-369.9922 1254.0577,-369.9922 1254.0577,-374.0251 1250.0248,-378.0581 1245.9918,-378.0581"/>
<text text-anchor="middle" x="1186.2168" y="-362.8085" font-family="Arial" font-size="14.00" fill="#c6c5fe">core/runner/hook.js</text>
</g>
<!-- core/runner/hook.js&#45;&gt;core/engine/request.factory.js -->
<g id="edge86" class="edge">
<title>core/runner/hook.js&#45;&gt;core/engine/request.factory.js</title>
<path fill="none" stroke="#757575" d="M1196.7663,-378.3119C1215.5155,-400.119 1256.0957,-446.6611 1292.4785,-483.9592 1318.6736,-510.8133 1350.3688,-540.3316 1370.7928,-558.9927"/>
<polygon fill="#757575" stroke="#757575" points="1368.5401,-561.6751 1378.2912,-565.8185 1373.2523,-556.4986 1368.5401,-561.6751"/>
</g>
<!-- core/runner/hook.js&#45;&gt;core/log/index.js -->
<g id="edge88" class="edge">
<title>core/runner/hook.js&#45;&gt;core/log/index.js</title>
<path fill="none" stroke="#757575" d="M1254.5185,-366.8838C1501.4059,-370.2256 2346.0267,-381.6584 2594.483,-385.0215"/>
<polygon fill="#757575" stroke="#757575" points="2594.7702,-388.5256 2604.8167,-385.1614 2594.865,-381.5262 2594.7702,-388.5256"/>
</g>
<!-- core/runner/hook.js&#45;&gt;core/helper/index.js -->
<g id="edge87" class="edge">
<title>core/runner/hook.js&#45;&gt;core/helper/index.js</title>
<path fill="none" stroke="#757575" d="M1221.5974,-378.0436C1232.869,-382.1607 1245.3091,-386.987 1256.4785,-391.9592 1293.5504,-408.4624 1334.6287,-430.5927 1361.6899,-445.7334"/>
<polygon fill="#757575" stroke="#757575" points="1360.2166,-448.9205 1370.6476,-450.7767 1363.6508,-442.8208 1360.2166,-448.9205"/>
</g>
<!-- core/runner/index.js -->
<g id="node57" class="node">
<title>core/runner/index.js</title>
<path fill="none" stroke="#c6c5fe" d="M388.6944,-702.0581C388.6944,-702.0581 265.9238,-702.0581 265.9238,-702.0581 261.8908,-702.0581 257.8579,-698.0251 257.8579,-693.9922 257.8579,-693.9922 257.8579,-685.9263 257.8579,-685.9263 257.8579,-681.8933 261.8908,-677.8604 265.9238,-677.8604 265.9238,-677.8604 388.6944,-677.8604 388.6944,-677.8604 392.7273,-677.8604 396.7603,-681.8933 396.7603,-685.9263 396.7603,-685.9263 396.7603,-693.9922 396.7603,-693.9922 396.7603,-698.0251 392.7273,-702.0581 388.6944,-702.0581"/>
<text text-anchor="middle" x="327.3091" y="-686.8085" font-family="Arial" font-size="14.00" fill="#c6c5fe">core/runner/index.js</text>
</g>
<!-- core/runner/index.js&#45;&gt;core/runner/cli.js -->
<g id="edge89" class="edge">
<title>core/runner/index.js&#45;&gt;core/runner/cli.js</title>
<path fill="none" stroke="#757575" d="M396.8039,-689.9592C415.8742,-689.9592 436.5506,-689.9592 455.626,-689.9592"/>
<polygon fill="#757575" stroke="#757575" points="455.7371,-693.4593 465.7371,-689.9592 455.737,-686.4593 455.7371,-693.4593"/>
</g>
<!-- core/runner/index.js&#45;&gt;core/runner/execute.js -->
<g id="edge90" class="edge">
<title>core/runner/index.js&#45;&gt;core/runner/execute.js</title>
<path fill="none" stroke="#757575" d="M396.8063,-699.7113C408.1355,-702.5598 419.5328,-706.231 429.8604,-710.9592 527.1625,-755.5066 523.3829,-813.1471 620.5635,-857.9592 631.9498,-863.2097 644.4165,-867.412 656.912,-870.7723"/>
<polygon fill="#757575" stroke="#757575" points="656.3675,-874.2443 666.9193,-873.2906 658.0759,-867.4559 656.3675,-874.2443"/>
</g>
<!-- index.js -->
<g id="node58" class="node">
<title>index.js</title>
<path fill="none" stroke="#c6c5fe" d="M118.2835,-702.0581C118.2835,-702.0581 70.4743,-702.0581 70.4743,-702.0581 66.4414,-702.0581 62.4084,-698.0251 62.4084,-693.9922 62.4084,-693.9922 62.4084,-685.9263 62.4084,-685.9263 62.4084,-681.8933 66.4414,-677.8604 70.4743,-677.8604 70.4743,-677.8604 118.2835,-677.8604 118.2835,-677.8604 122.3165,-677.8604 126.3494,-681.8933 126.3494,-685.9263 126.3494,-685.9263 126.3494,-693.9922 126.3494,-693.9922 126.3494,-698.0251 122.3165,-702.0581 118.2835,-702.0581"/>
<text text-anchor="middle" x="94.3789" y="-686.8085" font-family="Arial" font-size="14.00" fill="#c6c5fe">index.js</text>
</g>
<!-- index.js&#45;&gt;config/report/report.config.json -->
<g id="edge92" class="edge">
<title>index.js&#45;&gt;config/report/report.config.json</title>
<path fill="none" stroke="#757575" d="M126.2785,-695.7111C158.115,-701.4516 208.2429,-710.4902 250.4763,-718.1054"/>
<polygon fill="#757575" stroke="#757575" points="250.0056,-721.5769 260.468,-719.907 251.2478,-714.688 250.0056,-721.5769"/>
</g>
<!-- index.js&#45;&gt;core/helper/index.js -->
<g id="edge93" class="edge">
<title>index.js&#45;&gt;core/helper/index.js</title>
<path fill="none" stroke="#757575" d="M98.6963,-677.7356C125.2218,-605.0597 273.3315,-232.9592 525.2119,-232.9592 525.2119,-232.9592 525.2119,-232.9592 744.1045,-232.9592 922.9838,-232.9592 946.7712,-328.8677 1115.9551,-386.9592 1188.7484,-411.9538 1274.472,-434.5338 1330.8063,-448.4656"/>
<polygon fill="#757575" stroke="#757575" points="1330.08,-451.8912 1340.6265,-450.8801 1331.7514,-445.0936 1330.08,-451.8912"/>
</g>
<!-- index.js&#45;&gt;core/runner/index.js -->
<g id="edge94" class="edge">
<title>index.js&#45;&gt;core/runner/index.js</title>
<path fill="none" stroke="#757575" d="M126.2785,-689.9592C157.3572,-689.9592 205.8668,-689.9592 247.4474,-689.9592"/>
<polygon fill="#757575" stroke="#757575" points="247.5777,-693.4593 257.5777,-689.9592 247.5777,-686.4593 247.5777,-693.4593"/>
</g>
</g>
</svg>
